<?xml version="1.0" encoding="UTF-8" standalone="no"?>
<svg
   xmlns:dc="http://purl.org/dc/elements/1.1/"
   xmlns:cc="http://creativecommons.org/ns#"
   xmlns:rdf="http://www.w3.org/1999/02/22-rdf-syntax-ns#"
   xmlns:svg="http://www.w3.org/2000/svg"
   xmlns="http://www.w3.org/2000/svg"
   xmlns:sodipodi="http://sodipodi.sourceforge.net/DTD/sodipodi-0.dtd"
   xmlns:inkscape="http://www.inkscape.org/namespaces/inkscape"
   width="297mm"
   height="210mm"
   viewBox="0 0 297 210"
   version="1.1"
   id="svg8"
   inkscape:version="1.0 (4035a4fb49, 2020-05-01)"
   sodipodi:docname="threat-model.svg"
   inkscape:export-filename="/home/mark/dev/evs-web2/threat-model.png"
   inkscape:export-xdpi="89.988571"
   inkscape:export-ydpi="89.988571">
  <defs
     id="defs2">
    <inkscape:path-effect
       effect="simplify"
       id="path-effect20"
       is_visible="true"
       lpeversion="1"
       steps="1"
       threshold="0.000851064"
       smooth_angles="360"
       helper_size="0"
       simplify_individual_paths="false"
       simplify_just_coalesce="false" />
    <inkscape:path-effect
       effect="simplify"
       id="path-effect16"
       is_visible="true"
       lpeversion="1"
       steps="1"
       threshold="0.000851064"
       smooth_angles="360"
       helper_size="0"
       simplify_individual_paths="false"
       simplify_just_coalesce="false" />
    <inkscape:path-effect
       effect="simplify"
       id="path-effect12"
       is_visible="true"
       lpeversion="1"
       steps="1"
       threshold="0.000851064"
       smooth_angles="360"
       helper_size="0"
       simplify_individual_paths="false"
       simplify_just_coalesce="false" />
  </defs>
  <sodipodi:namedview
     id="base"
     pagecolor="#464646"
     bordercolor="#666666"
     borderopacity="1.0"
     inkscape:pageopacity="1"
     inkscape:pageshadow="2"
     inkscape:zoom="0.8391835"
     inkscape:cx="561.25984"
     inkscape:cy="396.85039"
     inkscape:document-units="mm"
     inkscape:current-layer="layer1"
     inkscape:document-rotation="0"
     showgrid="false"
     inkscape:window-width="1530"
     inkscape:window-height="1205"
     inkscape:window-x="84"
     inkscape:window-y="85"
     inkscape:window-maximized="0"
     inkscape:snap-text-baseline="false" />
  <metadata
     id="metadata5">
    <rdf:RDF>
      <cc:Work
         rdf:about="">
        <dc:format>image/svg+xml</dc:format>
        <dc:type
           rdf:resource="http://purl.org/dc/dcmitype/StillImage" />
        <dc:title></dc:title>
      </cc:Work>
    </rdf:RDF>
  </metadata>
  <g
     style="opacity:1"
     inkscape:label="Layer 1"
     inkscape:groupmode="layer"
     id="layer1">
    <path
       id="path18"
       style="fill:#c97887;fill-opacity:1;fill-rule:evenodd;stroke:#963c4d;stroke-width:0.264583px;stroke-linecap:butt;stroke-linejoin:miter;stroke-opacity:1"
       d="m 62.581629,79.935681 c -1.599794,-2.775313 -4.400357,-4.776193 -7.647227,-5.011189 -3.269029,-0.638028 -7.121696,-0.352751 -9.175864,2.594696 -1.850737,0.924819 -2.988986,3.360909 -4.863582,3.377194 -2.190151,-2.086656 -5.279257,-5.789905 -8.243236,-2.404037 -2.24051,2.077683 -5.577279,3.312054 -6.31306,6.624485 -0.01069,3.207668 -4.45473,0.285895 -6.295055,2.526659 -3.691036,2.786198 -6.078048,7.405628 -6.109447,12.050278 1.173741,2.809103 -2.582486,5.597083 -1.12245,8.586203 2.227272,2.98543 6.300074,3.72619 9.747094,4.49133 3.113198,0.44167 6.473192,3.38489 9.269553,0.43778 1.364042,-1.3361 2.590646,-2.58809 3.527912,-0.18055 3.08211,3.98965 8.454618,4.68979 13.139151,5.12664 2.998616,0.53408 5.944019,-1.10205 8.841422,-0.49549 3.047385,1.80583 7.218328,2.57087 10.167698,0.18202 2.133206,-1.8634 1.78944,-6.57106 5.834257,-5.33435 3.569924,0.7556 7.394298,-0.15868 9.660023,-3.18453 2.524071,-1.68804 1.80457,-5.2974 3.41051,-7.95404 1.273475,-2.826243 -2.115798,-5.254853 -0.662891,-7.868633 0.518622,-3.32928 1.055595,-7.818299 -2.729367,-9.457889 -2.216908,-1.62433 -5.90408,0.444295 -6.448412,-2.687331 -2.643387,-2.145601 -6.323097,-1.103278 -9.394292,-1.411589 -1.341246,-1.171472 -3.122922,-0.813266 -4.592737,-0.0077 z" />
    <path
       d="m 229.11744,19.032625 c -1.37791,-2.389505 -3.79006,-4.112234 -6.58663,-4.314562 -2.81565,-0.549333 -6.13399,-0.303714 -7.90327,2.233996 -1.59405,0.796256 -2.57444,2.893695 -4.18905,2.907716 -1.8864,-1.796581 -4.54709,-4.985026 -7.09999,-2.069842 -1.92978,1.788856 -4.80376,2.851631 -5.43751,5.703587 -0.009,2.761756 -3.8369,0.246152 -5.42199,2.175417 -3.17913,2.398877 -5.23509,6.376142 -5.26213,10.375116 1.01095,2.4186 -2.22432,4.819005 -0.96678,7.392599 1.91837,2.570413 5.42632,3.208192 8.39528,3.866971 2.68142,0.380267 5.57542,2.914341 7.98396,0.37692 1.17486,-1.150361 2.23135,-2.228309 3.03863,-0.155454 2.65465,3.435037 7.28205,4.037846 11.31688,4.413969 2.58275,0.459835 5.11965,-0.948851 7.61521,-0.426611 2.62475,1.554795 6.21723,2.213484 8.75755,0.156716 1.83736,-1.604359 1.54126,-5.657587 5.02511,-4.5928 3.07481,0.650556 6.36879,-0.136622 8.32028,-2.741839 2.174,-1.453378 1.55429,-4.560984 2.9375,-6.848307 1.09687,-2.433357 -1.82235,-4.524355 -0.57095,-6.774778 0.44669,-2.866462 0.9092,-6.731447 -2.35084,-8.14311 -1.90943,-1.398525 -5.08523,0.382532 -5.55408,-2.313754 -2.27678,-1.847331 -5.44614,-0.949906 -8.0914,-1.215358 -1.15522,-1.00862 -2.6898,-0.700211 -3.95578,-0.0066 z"
       style="font-variation-settings:normal;opacity:1;vector-effect:none;fill:#6eabcc;fill-opacity:1;fill-rule:evenodd;stroke:#24495c;stroke-width:0.264583px;stroke-linecap:butt;stroke-linejoin:miter;stroke-miterlimit:4;stroke-dasharray:none;stroke-dashoffset:0;stroke-opacity:1;stop-color:#000000;stop-opacity:1"
       id="path18-3" />
    <rect
       style="color:#000000;clip-rule:nonzero;display:inline;overflow:visible;visibility:visible;opacity:1;isolation:auto;color-interpolation:sRGB;color-interpolation-filters:linearRGB;solid-color:#000000;solid-opacity:1;vector-effect:none;fill:#c97887;fill-opacity:1;fill-rule:evenodd;stroke:#963c4d;stroke-width:0.264583px;stroke-linecap:butt;stroke-linejoin:miter;stroke-miterlimit:4;stroke-dasharray:none;stroke-dashoffset:0;stroke-opacity:1;marker:none;color-rendering:auto;image-rendering:auto;shape-rendering:auto;text-rendering:auto;enable-background:accumulate;stop-color:#000000;stop-opacity:1"
       id="rect876"
       width="34.610523"
       height="20.437529"
       x="14.73656"
       y="15.139594" />
    <rect
       y="149.58119"
       x="11.851055"
       height="20.437529"
       width="34.610523"
       id="rect876-5"
       style="color:#000000;font-variation-settings:normal;clip-rule:nonzero;display:inline;overflow:visible;visibility:visible;opacity:1;isolation:auto;color-interpolation:sRGB;color-interpolation-filters:linearRGB;solid-color:#000000;solid-opacity:1;vector-effect:none;fill:#c97887;fill-opacity:1;fill-rule:evenodd;stroke:#963c4d;stroke-width:0.264583px;stroke-linecap:butt;stroke-linejoin:miter;stroke-miterlimit:4;stroke-dasharray:none;stroke-dashoffset:0;stroke-opacity:1;marker:none;color-rendering:auto;image-rendering:auto;shape-rendering:auto;text-rendering:auto;enable-background:accumulate;stop-color:#000000;stop-opacity:1" />
    <path
       id="path18-3-3"
       style="font-variation-settings:normal;opacity:1;vector-effect:none;fill:#6eabcc;fill-opacity:1;fill-rule:evenodd;stroke:#24495c;stroke-width:0.264583px;stroke-linecap:butt;stroke-linejoin:miter;stroke-miterlimit:4;stroke-dasharray:none;stroke-dashoffset:0;stroke-opacity:1;stop-color:#000000;stop-opacity:1"
       d="m 219.03451,67.439719 c -1.37791,-2.389505 -3.79006,-4.112234 -6.58663,-4.314562 -2.81565,-0.549333 -6.13399,-0.303714 -7.90327,2.233996 -1.59405,0.796256 -2.57444,2.893695 -4.18905,2.907716 -1.8864,-1.796581 -4.54709,-4.985026 -7.09999,-2.069842 -1.92978,1.788856 -4.80376,2.851631 -5.43751,5.703587 -0.009,2.761757 -3.8369,0.246152 -5.42199,2.175417 -3.17913,2.398877 -5.23509,6.376143 -5.26213,10.375116 1.01095,2.418601 -2.22432,4.819002 -0.96678,7.392602 1.91837,2.570407 5.42632,3.208187 8.39528,3.866967 2.68142,0.380271 5.57542,2.914341 7.98396,0.376921 1.17486,-1.150361 2.23135,-2.228311 3.03863,-0.155461 2.65465,3.435041 7.28205,4.037851 11.31688,4.413974 2.58275,0.45984 5.11965,-0.948853 7.61521,-0.426613 2.62475,1.554803 6.21723,2.213493 8.75755,0.156723 1.83736,-1.604363 1.54126,-5.657594 5.02511,-4.592804 3.07481,0.650561 6.36879,-0.13662 8.32028,-2.74184 2.174,-1.453377 1.55429,-4.560977 2.9375,-6.848304 1.09687,-2.433357 -1.82235,-4.524356 -0.57095,-6.774778 0.44669,-2.866463 0.9092,-6.731448 -2.35084,-8.143111 -1.90943,-1.398525 -5.08523,0.382532 -5.55408,-2.313754 -2.27678,-1.847331 -5.44614,-0.949906 -8.0914,-1.215358 -1.15522,-1.00862 -2.6898,-0.700211 -3.95578,-0.0066 z" />
    <path
       id="path18-3-5"
       style="font-variation-settings:normal;opacity:1;vector-effect:none;fill:#6eabcc;fill-opacity:1;fill-rule:evenodd;stroke:#24495c;stroke-width:0.264583px;stroke-linecap:butt;stroke-linejoin:miter;stroke-miterlimit:4;stroke-dasharray:none;stroke-dashoffset:0;stroke-opacity:1;stop-color:#000000;stop-opacity:1"
       d="m 243.02417,131.52892 c -1.37791,-2.3895 -3.79006,-4.11223 -6.58663,-4.31456 -2.81565,-0.54933 -6.13399,-0.30371 -7.90327,2.234 -1.59405,0.79625 -2.57444,2.89369 -4.18905,2.90771 -1.8864,-1.79658 -4.54709,-4.98502 -7.09999,-2.06984 -1.92978,1.78886 -4.80376,2.85163 -5.43751,5.70359 -0.009,2.76176 -3.8369,0.24615 -5.42199,2.17542 -3.17913,2.39887 -5.23509,6.37614 -5.26213,10.37511 1.01095,2.4186 -2.22432,4.81901 -0.96678,7.3926 1.91837,2.57042 5.42632,3.20819 8.39528,3.86697 2.68142,0.38027 5.57542,2.91434 7.98396,0.37692 1.17486,-1.15036 2.23135,-2.22831 3.03863,-0.15545 2.65465,3.43504 7.28205,4.03784 11.31688,4.41397 2.58275,0.45983 5.11965,-0.94885 7.61521,-0.42661 2.62475,1.55479 6.21723,2.21348 8.75755,0.15671 1.83736,-1.60435 1.54126,-5.65758 5.02511,-4.5928 3.07481,0.65056 6.36879,-0.13662 8.32028,-2.74183 2.174,-1.45338 1.55429,-4.56099 2.9375,-6.84831 1.09687,-2.43336 -1.82235,-4.52436 -0.57095,-6.77478 0.44669,-2.86646 0.9092,-6.73145 -2.35084,-8.14311 -1.90943,-1.39853 -5.08523,0.38253 -5.55408,-2.31376 -2.27678,-1.84733 -5.44614,-0.9499 -8.0914,-1.21535 -1.15522,-1.00862 -2.6898,-0.70021 -3.95578,-0.007 z" />
    <rect
       y="67.710869"
       x="117.24469"
       height="20.437529"
       width="34.610523"
       id="rect876-2"
       style="color:#000000;font-variation-settings:normal;clip-rule:nonzero;display:inline;overflow:visible;visibility:visible;opacity:1;isolation:auto;color-interpolation:sRGB;color-interpolation-filters:linearRGB;solid-color:#000000;solid-opacity:1;vector-effect:none;fill:#c97887;fill-opacity:1;fill-rule:evenodd;stroke:#963c4d;stroke-width:0.264583px;stroke-linecap:butt;stroke-linejoin:miter;stroke-miterlimit:4;stroke-dasharray:none;stroke-dashoffset:0;stroke-opacity:1;marker:none;color-rendering:auto;image-rendering:auto;shape-rendering:auto;text-rendering:auto;enable-background:accumulate;stop-color:#000000;stop-opacity:1" />
    <path
       d="m 125.76481,121.46433 c -1.59979,-2.77531 -4.40035,-4.77619 -7.64722,-5.01119 -3.26903,-0.63803 -7.1217,-0.35275 -9.17587,2.5947 -1.85073,0.92482 -2.98898,3.36091 -4.86358,3.37719 -2.19015,-2.08665 -5.279253,-5.7899 -8.243233,-2.40404 -2.24051,2.07769 -5.577283,3.31206 -6.313064,6.62449 -0.01069,3.20767 -4.45473,0.28589 -6.295055,2.52666 -3.691036,2.7862 -6.078048,7.40563 -6.109447,12.05027 1.173741,2.80911 -2.582486,5.59709 -1.12245,8.58621 2.227272,2.98543 6.300074,3.72619 9.747094,4.49133 3.113198,0.44167 6.473192,3.38489 9.269552,0.43778 1.36404,-1.3361 2.59065,-2.58809 3.52791,-0.18055 3.082113,3.98965 8.454623,4.68979 13.139153,5.12664 2.99862,0.53408 5.94402,-1.10205 8.84142,-0.49549 3.04739,1.80583 7.21833,2.57087 10.1677,0.18202 2.13321,-1.8634 1.78944,-6.57106 5.83426,-5.33435 3.56992,0.7556 7.3943,-0.15868 9.66002,-3.18453 2.52407,-1.68804 1.80457,-5.2974 3.41051,-7.95404 1.27348,-2.82625 -2.11579,-5.25485 -0.66289,-7.86863 0.51862,-3.32928 1.0556,-7.8183 -2.72937,-9.45789 -2.21691,-1.62433 -5.90407,0.44429 -6.44841,-2.68733 -2.64339,-2.1456 -6.32309,-1.10328 -9.39429,-1.41159 -1.34124,-1.17147 -3.12292,-0.81327 -4.59274,-0.008 z"
       style="fill:#c97887;fill-opacity:1;fill-rule:evenodd;stroke:#963c4d;stroke-width:0.264583px;stroke-linecap:butt;stroke-linejoin:miter;stroke-opacity:1"
       id="path18-1" />
    <path
       style="fill:none;fill-rule:evenodd;stroke:#ffffff;stroke-width:0.264583px;stroke-linecap:butt;stroke-linejoin:miter;stroke-opacity:1;font-variation-settings:normal;opacity:1;vector-effect:none;fill-opacity:1;stroke-miterlimit:4;stroke-dasharray:none;stroke-dashoffset:0;stop-color:#000000;stop-opacity:1"
       d="M 32.480199,149.58119 42.959782,117.36333"
       id="path998"
       inkscape:connector-type="polyline"
       inkscape:connector-curvature="0"
       inkscape:connection-start="#rect876-5"
       inkscape:connection-end="#path18" />
    <path
       style="fill:none;fill-rule:evenodd;stroke:#ffffff;stroke-width:0.264583px;stroke-linecap:butt;stroke-linejoin:miter;stroke-opacity:1"
       d="M 90.826189,124.09981 73.077598,112.43413"
       id="path1000"
       inkscape:connector-type="polyline"
       inkscape:connector-curvature="0"
       inkscape:connection-start="#path18-1"
       inkscape:connection-end="#path18" />
    <path
       style="fill:none;fill-rule:evenodd;stroke:#ffffff;stroke-width:0.264583px;stroke-linecap:butt;stroke-linejoin:miter;stroke-opacity:1;font-variation-settings:normal;opacity:1;vector-effect:none;fill-opacity:1;stroke-miterlimit:4;stroke-dasharray:none;stroke-dashoffset:0;stop-color:#000000;stop-opacity:1"
       d="m 34.54444,35.577123 10.400081,42.46591"
       id="path1002"
       inkscape:connector-type="polyline"
       inkscape:connector-curvature="0"
       inkscape:connection-start="#rect876"
       inkscape:connection-end="#path18" />
    <path
       style="fill:none;fill-rule:evenodd;stroke:#ffffff;stroke-width:0.264583px;stroke-linecap:butt;stroke-linejoin:miter;stroke-opacity:1;font-variation-settings:normal;opacity:1;vector-effect:none;fill-opacity:1;stroke-miterlimit:4;stroke-dasharray:none;stroke-dashoffset:0;stop-color:#000000;stop-opacity:1"
       d="m 117.24469,81.812481 -31.169989,6.99373"
       id="path1004"
       inkscape:connector-type="polyline"
       inkscape:connector-curvature="0"
       inkscape:connection-start="#rect876-2"
       inkscape:connection-end="#path18" />
    <path
       style="fill:none;fill-rule:evenodd;stroke:#ffffff;stroke-width:0.264583px;stroke-linecap:butt;stroke-linejoin:miter;stroke-opacity:1;font-variation-settings:normal;opacity:1;vector-effect:none;fill-opacity:1;stroke-miterlimit:4;stroke-dasharray:none;stroke-dashoffset:0;stop-color:#000000;stop-opacity:1"
       d="M 177.84072,80.408404 151.85521,78.920509"
       id="path1008"
       inkscape:connector-type="polyline"
       inkscape:connector-curvature="0"
       inkscape:connection-start="#path18-3-3"
       inkscape:connection-end="#rect876-2" />
    <path
       style="fill:none;fill-rule:evenodd;stroke:#ffffff;stroke-width:0.264583px;stroke-linecap:butt;stroke-linejoin:miter;stroke-opacity:1;font-variation-settings:normal;opacity:1;vector-effect:none;fill-opacity:1;stroke-miterlimit:4;stroke-dasharray:none;stroke-dashoffset:0;stop-color:#000000;stop-opacity:1"
       d="M 213.41515,133.28877 149.10771,88.148397"
       id="path1010"
       inkscape:connector-type="polyline"
       inkscape:connector-curvature="0"
       inkscape:connection-start="#path18-3-5"
       inkscape:connection-end="#rect876-2" />
    <path
       style="fill:none;fill-rule:evenodd;stroke:#ffffff;stroke-width:0.264583px;stroke-linecap:butt;stroke-linejoin:miter;stroke-opacity:1;font-variation-settings:normal;opacity:1;vector-effect:none;fill-opacity:1;stroke-miterlimit:4;stroke-dasharray:none;stroke-dashoffset:0;stop-color:#000000;stop-opacity:1"
       d="M 192.99653,46.93723 151.85521,68.753191"
       id="path1014"
       inkscape:connector-type="polyline"
       inkscape:connector-curvature="0"
       inkscape:connection-start="#path18-3"
       inkscape:connection-end="#rect876-2" />
    <text
       xml:space="preserve"
       style="font-style:normal;font-variant:normal;font-weight:normal;font-stretch:normal;font-size:7.05556px;line-height:125%;font-family:Dadhand;-inkscape-font-specification:'Dadhand, Normal';font-variant-ligatures:normal;font-variant-caps:normal;font-variant-numeric:normal;font-variant-east-asian:normal;letter-spacing:0px;word-spacing:0px;fill:#000000;fill-opacity:1;stroke:none;stroke-width:0.264583px;stroke-linecap:butt;stroke-linejoin:miter;stroke-opacity:1"
       x="21.377371"
       y="23.442774"
       id="text1036"><tspan
         sodipodi:role="line"
         id="tspan1034"
         x="21.377371"
         y="23.442774"
         style="font-style:normal;font-variant:normal;font-weight:normal;font-stretch:normal;font-size:7.05556px;font-family:Dadhand;-inkscape-font-specification:'Dadhand, Normal';font-variant-ligatures:normal;font-variant-caps:normal;font-variant-numeric:normal;font-variant-east-asian:normal;fill:#ffffff;fill-opacity:1;stroke-width:0.264583px">Google</tspan><tspan
         sodipodi:role="line"
         x="21.377371"
         y="32.262222"
         style="font-style:normal;font-variant:normal;font-weight:normal;font-stretch:normal;font-size:7.05556px;font-family:Dadhand;-inkscape-font-specification:'Dadhand, Normal';font-variant-ligatures:normal;font-variant-caps:normal;font-variant-numeric:normal;font-variant-east-asian:normal;fill:#ffffff;fill-opacity:1;stroke-width:0.264583px"
         id="tspan1038">G-suite</tspan></text>
    <text
       id="text1036-6"
       y="100.79752"
       x="33.360016"
       style="font-style:normal;font-variant:normal;font-weight:normal;font-stretch:normal;font-size:7.05556px;line-height:125%;font-family:Dadhand;-inkscape-font-specification:'Dadhand, Normal';font-variant-ligatures:normal;font-variant-caps:normal;font-variant-numeric:normal;font-variant-east-asian:normal;letter-spacing:0px;word-spacing:0px;fill:#000000;fill-opacity:1;stroke:none;stroke-width:0.264583px;stroke-linecap:butt;stroke-linejoin:miter;stroke-opacity:1"
       xml:space="preserve"><tspan
         id="tspan1038-6"
         style="font-style:normal;font-variant:normal;font-weight:normal;font-stretch:normal;font-size:11.2889px;font-family:Dadhand;-inkscape-font-specification:'Dadhand, Normal';font-variant-ligatures:normal;font-variant-caps:normal;font-variant-numeric:normal;font-variant-east-asian:normal;fill:#ffffff;fill-opacity:1;stroke-width:0.264583px"
         y="100.79752"
         x="33.360016"
         sodipodi:role="line">Internet</tspan></text>
    <text
       id="text1036-7"
       y="75.929382"
       x="134.5323"
       style="font-style:normal;font-variant:normal;font-weight:normal;font-stretch:normal;font-size:7.05556px;line-height:125%;font-family:Dadhand;-inkscape-font-specification:'Dadhand, Normal';font-variant-ligatures:normal;font-variant-caps:normal;font-variant-numeric:normal;font-variant-east-asian:normal;letter-spacing:0px;word-spacing:0px;fill:#000000;fill-opacity:1;stroke:none;stroke-width:0.264583px;stroke-linecap:butt;stroke-linejoin:miter;stroke-opacity:1"
       xml:space="preserve"><tspan
         style="font-style:normal;font-variant:normal;font-weight:normal;font-stretch:normal;font-size:7.05556px;font-family:Dadhand;-inkscape-font-specification:'Dadhand, Normal';font-variant-ligatures:normal;font-variant-caps:normal;font-variant-numeric:normal;font-variant-east-asian:normal;text-align:center;text-anchor:middle;fill:#ffffff;fill-opacity:1;stroke-width:0.264583px"
         y="75.929382"
         x="134.5323"
         sodipodi:role="line"
         id="tspan1100">Virgin</tspan><tspan
         style="font-style:normal;font-variant:normal;font-weight:normal;font-stretch:normal;font-size:7.05556px;font-family:Dadhand;-inkscape-font-specification:'Dadhand, Normal';font-variant-ligatures:normal;font-variant-caps:normal;font-variant-numeric:normal;font-variant-east-asian:normal;text-align:center;text-anchor:middle;fill:#ffffff;fill-opacity:1;stroke-width:0.264583px"
         y="84.748833"
         x="134.5323"
         sodipodi:role="line"
         id="tspan1104">Media</tspan></text>
    <text
       xml:space="preserve"
       style="font-style:normal;font-variant:normal;font-weight:normal;font-stretch:normal;font-size:7.05556px;line-height:125%;font-family:Dadhand;-inkscape-font-specification:'Dadhand, Normal';font-variant-ligatures:normal;font-variant-caps:normal;font-variant-numeric:normal;font-variant-east-asian:normal;letter-spacing:0px;word-spacing:0px;fill:#000000;fill-opacity:1;stroke:none;stroke-width:0.264583px;stroke-linecap:butt;stroke-linejoin:miter;stroke-opacity:1"
       x="233.27457"
       y="148.99419"
       id="text1036-6-7"><tspan
         sodipodi:role="line"
         x="233.27457"
         y="148.99419"
         style="font-style:normal;font-variant:normal;font-weight:normal;font-stretch:normal;font-size:7.05556px;font-family:Dadhand;-inkscape-font-specification:'Dadhand, Normal';font-variant-ligatures:normal;font-variant-caps:normal;font-variant-numeric:normal;font-variant-east-asian:normal;text-align:center;text-anchor:middle;fill:#ffffff;fill-opacity:1;stroke-width:0.264583px"
         id="tspan1146">IT network</tspan></text>
    <text
       xml:space="preserve"
       style="font-style:normal;font-variant:normal;font-weight:normal;font-stretch:normal;font-size:7.05556px;line-height:125%;font-family:Dadhand;-inkscape-font-specification:'Dadhand, Normal';font-variant-ligatures:normal;font-variant-caps:normal;font-variant-numeric:normal;font-variant-east-asian:normal;letter-spacing:0px;word-spacing:0px;fill:#000000;fill-opacity:1;stroke:none;stroke-width:0.264583px;stroke-linecap:butt;stroke-linejoin:miter;stroke-opacity:1"
       x="115.59451"
       y="137.92107"
       id="text1036-6-4"><tspan
         sodipodi:role="line"
         x="115.59451"
         y="137.92107"
         style="font-style:normal;font-variant:normal;font-weight:normal;font-stretch:normal;font-size:11.2889px;font-family:Dadhand;-inkscape-font-specification:'Dadhand, Normal';font-variant-ligatures:normal;font-variant-caps:normal;font-variant-numeric:normal;font-variant-east-asian:normal;text-align:center;text-anchor:middle;fill:#ffffff;fill-opacity:1;stroke-width:0.264583px"
         id="tspan1038-6-3">AWS prod</tspan><tspan
         sodipodi:role="line"
         x="115.59451"
         y="147.60826"
         style="font-style:normal;font-variant:normal;font-weight:normal;font-stretch:normal;font-size:11.2889px;font-family:Dadhand;-inkscape-font-specification:'Dadhand, Normal';font-variant-ligatures:normal;font-variant-caps:normal;font-variant-numeric:normal;font-variant-east-asian:normal;text-align:center;text-anchor:middle;fill:#ffffff;fill-opacity:1;stroke-width:0.264583px"
         id="tspan1144">deployment</tspan></text>
    <text
       id="text1036-6-7-3"
       y="32.291302"
       x="220.03468"
       style="font-style:normal;font-variant:normal;font-weight:normal;font-stretch:normal;font-size:7.05556px;line-height:125%;font-family:Dadhand;-inkscape-font-specification:'Dadhand, Normal';font-variant-ligatures:normal;font-variant-caps:normal;font-variant-numeric:normal;font-variant-east-asian:normal;letter-spacing:0px;word-spacing:0px;fill:#000000;fill-opacity:1;stroke:none;stroke-width:0.264583px;stroke-linecap:butt;stroke-linejoin:miter;stroke-opacity:1"
       xml:space="preserve"><tspan
         id="tspan1038-6-0-9"
         style="font-style:normal;font-variant:normal;font-weight:normal;font-stretch:normal;font-size:7.05556px;font-family:Dadhand;-inkscape-font-specification:'Dadhand, Normal';font-variant-ligatures:normal;font-variant-caps:normal;font-variant-numeric:normal;font-variant-east-asian:normal;text-align:center;text-anchor:middle;fill:#ffffff;fill-opacity:1;stroke-width:0.264583px"
         y="32.291302"
         x="220.03468"
         sodipodi:role="line">Research</tspan><tspan
         id="tspan1146-9"
         style="font-style:normal;font-variant:normal;font-weight:normal;font-stretch:normal;font-size:7.05556px;font-family:Dadhand;-inkscape-font-specification:'Dadhand, Normal';font-variant-ligatures:normal;font-variant-caps:normal;font-variant-numeric:normal;font-variant-east-asian:normal;text-align:center;text-anchor:middle;fill:#ffffff;fill-opacity:1;stroke-width:0.264583px"
         y="41.110748"
         x="220.03468"
         sodipodi:role="line">network</tspan></text>
    <text
       id="text1036-6-7-5"
       y="75.686859"
       x="209.04741"
       style="font-style:normal;font-variant:normal;font-weight:normal;font-stretch:normal;font-size:7.05556px;line-height:125%;font-family:Dadhand;-inkscape-font-specification:'Dadhand, Normal';font-variant-ligatures:normal;font-variant-caps:normal;font-variant-numeric:normal;font-variant-east-asian:normal;letter-spacing:0px;word-spacing:0px;fill:#000000;fill-opacity:1;stroke:none;stroke-width:0.264583px;stroke-linecap:butt;stroke-linejoin:miter;stroke-opacity:1"
       xml:space="preserve"><tspan
         style="font-style:normal;font-variant:normal;font-weight:normal;font-stretch:normal;font-size:7.05556px;font-family:Dadhand;-inkscape-font-specification:'Dadhand, Normal';font-variant-ligatures:normal;font-variant-caps:normal;font-variant-numeric:normal;font-variant-east-asian:normal;text-align:center;text-anchor:middle;fill:#ffffff;fill-opacity:1;stroke-width:0.264583px"
         y="75.686859"
         x="209.04741"
         sodipodi:role="line"
         id="tspan1208">Office</tspan><tspan
         style="font-style:normal;font-variant:normal;font-weight:normal;font-stretch:normal;font-size:7.05556px;font-family:Dadhand;-inkscape-font-specification:'Dadhand, Normal';font-variant-ligatures:normal;font-variant-caps:normal;font-variant-numeric:normal;font-variant-east-asian:normal;text-align:center;text-anchor:middle;fill:#ffffff;fill-opacity:1;stroke-width:0.264583px"
         y="84.50631"
         x="209.04741"
         sodipodi:role="line"
         id="tspan1212">productivity</tspan><tspan
         style="font-style:normal;font-variant:normal;font-weight:normal;font-stretch:normal;font-size:7.05556px;font-family:Dadhand;-inkscape-font-specification:'Dadhand, Normal';font-variant-ligatures:normal;font-variant-caps:normal;font-variant-numeric:normal;font-variant-east-asian:normal;text-align:center;text-anchor:middle;fill:#ffffff;fill-opacity:1;stroke-width:0.264583px"
         y="93.32576"
         x="209.04741"
         sodipodi:role="line"
         id="tspan1214">network</tspan></text>
    <g
       id="g1281"
       transform="translate(8.5121153,5.4860415)">
      <rect
         y="173.32281"
         x="203.03473"
         height="11.090196"
         width="11.993912"
         id="rect1216"
         style="color:#000000;font-variation-settings:normal;clip-rule:nonzero;display:inline;overflow:visible;visibility:visible;opacity:1;isolation:auto;color-interpolation:sRGB;color-interpolation-filters:linearRGB;solid-color:#000000;solid-opacity:1;vector-effect:none;fill:#6eabcc;fill-opacity:1;fill-rule:evenodd;stroke:#24495c;stroke-width:0.264583px;stroke-linecap:butt;stroke-linejoin:miter;stroke-miterlimit:4;stroke-dasharray:none;stroke-dashoffset:0;stroke-opacity:1;marker:none;color-rendering:auto;image-rendering:auto;shape-rendering:auto;text-rendering:auto;enable-background:accumulate;stop-color:#000000;stop-opacity:1" />
      <path
         sodipodi:nodetypes="ccccc"
         id="path1218"
         d="m 203.6197,186.29665 -3.66559,3.66559 h 18.83342 l -3.81683,-3.64074 z"
         style="font-variation-settings:normal;opacity:1;vector-effect:none;fill:#6eabcc;fill-opacity:1;fill-rule:evenodd;stroke:#24495c;stroke-width:0.264583px;stroke-linecap:butt;stroke-linejoin:miter;stroke-miterlimit:4;stroke-dasharray:none;stroke-dashoffset:0;stroke-opacity:1;stop-color:#000000;stop-opacity:1" />
    </g>
    <g
       id="g1294"
       transform="translate(77.920441,26.834932)">
      <rect
         y="154.63467"
         x="173.26427"
         height="8.4962034"
         width="5.9795747"
         id="rect1224"
         style="color:#000000;font-variation-settings:normal;clip-rule:nonzero;display:inline;overflow:visible;visibility:visible;opacity:1;isolation:auto;color-interpolation:sRGB;color-interpolation-filters:linearRGB;solid-color:#000000;solid-opacity:1;vector-effect:none;fill:#6eabcc;fill-opacity:1;fill-rule:evenodd;stroke:#24495c;stroke-width:0.264583px;stroke-linecap:butt;stroke-linejoin:miter;stroke-miterlimit:4;stroke-dasharray:none;stroke-dashoffset:0;stroke-opacity:1;marker:none;color-rendering:auto;image-rendering:auto;shape-rendering:auto;text-rendering:auto;enable-background:accumulate;stop-color:#000000;stop-opacity:1" />
      <path
         sodipodi:nodetypes="ccccccc"
         id="path1228"
         d="m 174.19497,153.94322 -1.60149,-4.34011 1.51698,0.83656 -0.83343,-3.47795 1.78077,4.74282 -1.57034,-1.05915 z"
         style="fill:#f6c200;fill-opacity:1;fill-rule:evenodd;stroke:none;stroke-width:0.264583px;stroke-linecap:butt;stroke-linejoin:miter;stroke-opacity:1" />
      <rect
         style="color:#000000;font-variation-settings:normal;clip-rule:nonzero;display:inline;overflow:visible;visibility:visible;isolation:auto;color-interpolation:sRGB;color-interpolation-filters:linearRGB;solid-color:#000000;solid-opacity:1;vector-effect:none;fill:#ffffff;fill-opacity:1;fill-rule:evenodd;stroke:none;stroke-width:0.264583px;stroke-linecap:butt;stroke-linejoin:miter;stroke-miterlimit:4;stroke-dasharray:none;stroke-dashoffset:0;stroke-opacity:1;marker:none;color-rendering:auto;image-rendering:auto;shape-rendering:auto;text-rendering:auto;enable-background:accumulate;stop-color:#000000"
         id="rect1224-1"
         width="4.460216"
         height="6.3818245"
         x="174.02394"
         y="155.69186" />
    </g>
    <path
       style="fill:none;fill-rule:evenodd;stroke:#ffffff;stroke-width:0.264583px;stroke-linecap:butt;stroke-linejoin:miter;stroke-opacity:1;font-variation-settings:normal;opacity:1;vector-effect:none;fill-opacity:1;stroke-miterlimit:4;stroke-dasharray:none;stroke-dashoffset:0;stop-color:#000000;stop-opacity:1"
       d="m 220.72356,178.80886 5.15034,-15.11372"
       id="path1296"
       inkscape:connector-type="polyline"
       inkscape:connector-curvature="0"
       inkscape:connection-start="#g1281"
       inkscape:connection-end="#path18-3-5" />
    <path
       style="fill:none;fill-rule:evenodd;stroke:#ffffff;stroke-width:0.264583px;stroke-linecap:butt;stroke-linejoin:miter;stroke-opacity:1;font-variation-settings:normal;opacity:1;vector-effect:none;fill-opacity:1;stroke-miterlimit:4;stroke-dasharray:none;stroke-dashoffset:0;stop-color:#000000;stop-opacity:1"
       d="m 250.53211,176.48733 -6.81706,-11.03466"
       id="path1300"
       inkscape:connector-type="polyline"
       inkscape:connector-curvature="0"
       inkscape:connection-start="#g1294"
       inkscape:connection-end="#path18-3-5" />
    <text
       xml:space="preserve"
       style="font-style:normal;font-variant:normal;font-weight:normal;font-stretch:normal;font-size:6.35px;line-height:125%;font-family:Dadhand;-inkscape-font-specification:'Dadhand, Normal';font-variant-ligatures:normal;font-variant-caps:normal;font-variant-numeric:normal;font-variant-east-asian:normal;letter-spacing:0px;word-spacing:0px;fill:#000000;fill-opacity:1;stroke:none;stroke-width:0.264583px;stroke-linecap:butt;stroke-linejoin:miter;stroke-opacity:1"
       x="29.207111"
       y="158.08228"
       id="text1036-6-9"><tspan
         sodipodi:role="line"
         x="29.207111"
         y="158.08228"
         style="font-style:normal;font-variant:normal;font-weight:normal;font-stretch:normal;font-size:6.35px;font-family:Dadhand;-inkscape-font-specification:'Dadhand, Normal';font-variant-ligatures:normal;font-variant-caps:normal;font-variant-numeric:normal;font-variant-east-asian:normal;text-align:center;text-anchor:middle;fill:#ffffff;fill-opacity:1;stroke-width:0.264583px"
         id="tspan1038-6-7">Payment</tspan><tspan
         sodipodi:role="line"
         x="29.207111"
         y="166.01978"
         style="font-style:normal;font-variant:normal;font-weight:normal;font-stretch:normal;font-size:6.35px;font-family:Dadhand;-inkscape-font-specification:'Dadhand, Normal';font-variant-ligatures:normal;font-variant-caps:normal;font-variant-numeric:normal;font-variant-east-asian:normal;text-align:center;text-anchor:middle;fill:#ffffff;fill-opacity:1;stroke-width:0.264583px"
         id="tspan1320">services</tspan></text>
    <path
       inkscape:connection-start="#path18-1"
       inkscape:connector-curvature="0"
       inkscape:connector-type="polyline"
       id="path83"
       d="M 98.086886,153.69285 79.541211,172.85614"
       style="font-variation-settings:normal;opacity:1;vector-effect:none;fill:none;fill-opacity:1;fill-rule:evenodd;stroke:#ffffff;stroke-width:0.665;stroke-linecap:butt;stroke-linejoin:miter;stroke-miterlimit:4;stroke-dasharray:0.665,1.33;stroke-dashoffset:0;stroke-opacity:1;stop-color:#000000;stop-opacity:1" />
    <path
       inkscape:connection-start="#path18-3-5"
       inkscape:connector-curvature="0"
       inkscape:connector-type="polyline"
       id="path85"
       d="m 214.33281,161.28126 -29.22197,25.16071"
       style="font-variation-settings:normal;opacity:1;vector-effect:none;fill:none;fill-opacity:1;fill-rule:evenodd;stroke:#ffffff;stroke-width:0.665;stroke-linecap:butt;stroke-linejoin:miter;stroke-miterlimit:4;stroke-dasharray:0.665,1.33;stroke-dashoffset:0;stroke-opacity:1;stop-color:#000000;stop-opacity:1" />
    <path
       inkscape:connector-curvature="0"
       inkscape:connector-type="polyline"
       id="path87"
       d="m 26.217795,170.01872 -6.072637,21.11771"
       style="font-variation-settings:normal;opacity:1;vector-effect:none;fill:none;fill-opacity:1;fill-rule:evenodd;stroke:#ffffff;stroke-width:0.665;stroke-linecap:butt;stroke-linejoin:miter;stroke-miterlimit:4;stroke-dasharray:0.665, 1.33;stroke-dashoffset:0;stroke-opacity:1;stop-color:#000000;stop-opacity:1" />
    <path
       inkscape:connection-start="#rect876"
       inkscape:connector-curvature="0"
       inkscape:connector-type="polyline"
       id="path89"
       d="M 49.347083,19.575987 71.437398,12.194739"
       style="font-variation-settings:normal;opacity:1;vector-effect:none;fill:none;fill-opacity:1;fill-rule:evenodd;stroke:#ffffff;stroke-width:0.665;stroke-linecap:butt;stroke-linejoin:miter;stroke-miterlimit:4;stroke-dasharray:0.665, 1.33000000000000007;stroke-dashoffset:0;stroke-opacity:1;stop-color:#000000;stop-opacity:1" />
    <path
       inkscape:connection-start="#rect876"
       inkscape:connector-curvature="0"
       inkscape:connector-type="polyline"
       id="path91"
       d="m 49.347083,30.040377 20.321108,5.497969"
       style="font-variation-settings:normal;opacity:1;vector-effect:none;fill:none;fill-opacity:1;fill-rule:evenodd;stroke:#ffffff;stroke-width:0.665;stroke-linecap:butt;stroke-linejoin:miter;stroke-miterlimit:4;stroke-dasharray:0.665, 1.33;stroke-dashoffset:0;stroke-opacity:1;stop-color:#000000;stop-opacity:1" />
    <path
       inkscape:connection-start="#path18-3"
       inkscape:connector-curvature="0"
       inkscape:connector-type="polyline"
       id="path93"
       d="M 190.30444,27.757811 173.98025,24.234458"
       style="font-variation-settings:normal;opacity:1;vector-effect:none;fill:#d04298;fill-opacity:0.44843799;fill-rule:evenodd;stroke:#ffffff;stroke-width:0.665;stroke-linecap:butt;stroke-linejoin:miter;stroke-miterlimit:4;stroke-dasharray:0.665, 1.33000000000000007;stroke-dashoffset:0;stroke-opacity:1;stop-color:#000000;stop-opacity:1" />
    <path
       inkscape:connection-start="#path18-3-3"
       inkscape:connector-curvature="0"
       inkscape:connector-type="polyline"
       id="path113"
       d="m 221.15978,101.15008 10.12841,14.46678"
       style="font-variation-settings:normal;opacity:1;vector-effect:none;fill:none;fill-opacity:1;fill-rule:evenodd;stroke:#ffffff;stroke-width:0.665;stroke-linecap:butt;stroke-linejoin:miter;stroke-miterlimit:4;stroke-dasharray:0.665,1.33;stroke-dashoffset:0;stroke-opacity:1;stop-color:#000000;stop-opacity:1" />
    <path
       id="path896"
       d="m 167.53544,29.137259 c -1.15996,-0.133502 -2.07075,-0.362748 -2.55479,-0.643045 l -0.24757,-0.143363 0.035,-0.327809 c 0.0192,-0.180295 0.0951,-1.106421 0.16864,-2.058058 l 0.13369,-1.730249 0.35496,-0.326467 c 0.19522,-0.179557 0.56817,-0.436415 0.82877,-0.570795 0.26061,-0.13438 0.48434,-0.253294 0.49719,-0.264253 0.0128,-0.01096 -0.0456,-0.182456 -0.12995,-0.381104 -0.0843,-0.198648 -0.15323,-0.391034 -0.15314,-0.427525 9e-5,-0.03649 0.12995,-0.09748 0.28857,-0.135535 0.15862,-0.03805 0.28639,-0.09904 0.28393,-0.135534 -0.002,-0.03649 -0.0493,-0.193656 -0.10408,-0.349255 l -0.0996,-0.282907 -0.54981,-0.184223 c -1.17831,-0.394808 -1.7223,-0.847013 -1.7223,-1.431696 0,-0.500869 0.67295,-0.861211 1.89486,-1.01464 0.2321,-0.02914 0.43176,-0.06274 0.44367,-0.07466 0.0119,-0.01192 0.12762,-0.370975 0.25712,-0.797903 0.28266,-0.931894 0.36091,-1.025963 0.98664,-1.186164 0.60793,-0.15564 2.14856,-0.15564 2.75649,0 0.62573,0.160201 0.70398,0.25427 0.98664,1.186164 0.1295,0.426928 0.2452,0.785985 0.25712,0.797903 0.0119,0.01192 0.21157,0.04552 0.44367,0.07466 1.22191,0.153429 1.89486,0.513771 1.89486,1.01464 0,0.584683 -0.54399,1.036888 -1.7223,1.431696 l -0.54981,0.184223 -0.0996,0.282907 c -0.0548,0.155599 -0.10162,0.312764 -0.10408,0.349255 -0.002,0.03649 0.12531,0.09748 0.28393,0.135534 0.15862,0.03805 0.28848,0.09904 0.28857,0.135535 1.2e-4,0.03649 -0.0688,0.228877 -0.15314,0.427525 -0.0843,0.198648 -0.14279,0.370144 -0.12995,0.381104 0.0128,0.01096 0.23658,0.129873 0.49719,0.264253 0.2606,0.13438 0.63348,0.391176 0.82862,0.570656 l 0.3548,0.326329 0.2589,2.045121 0.25889,2.04512 -0.12374,0.100192 c -0.33433,0.270732 -1.55719,0.576292 -2.84276,0.710338 -1.01809,0.106154 -3.0822,0.107203 -3.99603,0.002 z m 1.47988,-8.137639 c 0.0902,-0.04665 0.16402,-0.105266 0.16402,-0.130257 0,-0.02499 -0.42828,-0.216497 -0.95173,-0.425568 -0.87762,-0.350532 -0.95173,-0.370853 -0.95173,-0.260972 0,0.319225 0.42654,0.775526 0.8516,0.911016 0.20342,0.06484 0.67755,0.01452 0.88784,-0.09422 z m 2.2199,-0.05478 c 0.25847,-0.151472 0.53975,-0.548583 0.53975,-0.762015 0,-0.109881 -0.0741,-0.08956 -0.95173,0.260972 -0.52345,0.209071 -0.95173,0.400331 -0.95173,0.42502 0,0.02469 0.0584,0.07627 0.12978,0.114616 0.3725,0.20013 0.85218,0.185128 1.23393,-0.03859 z"
       style="fill:#760d0d;fill-opacity:1;stroke-width:1" />
    <path
       id="path183"
       d="M 71.307176,57.082463 60.3472,77.220144"
       style="font-variation-settings:normal;opacity:1;vector-effect:none;fill:none;fill-opacity:1;fill-rule:evenodd;stroke:#ffffff;stroke-width:0.665;stroke-linecap:butt;stroke-linejoin:miter;stroke-miterlimit:4;stroke-dasharray:0.665, 1.33000000000000007;stroke-dashoffset:0;stroke-opacity:1;stop-color:#000000;stop-opacity:1" />
    <path
       style="opacity:1;fill:#760d0d;fill-opacity:1;stroke-width:1"
       d="m 230.23426,121.16345 c -1.15996,-0.1335 -2.07075,-0.36275 -2.55479,-0.64304 l -0.24757,-0.14337 0.035,-0.32781 c 0.0192,-0.18029 0.0951,-1.10642 0.16864,-2.05805 l 0.13369,-1.73025 0.35496,-0.32647 c 0.19522,-0.17956 0.56817,-0.43642 0.82877,-0.5708 0.26061,-0.13438 0.48434,-0.25329 0.49719,-0.26425 0.0128,-0.011 -0.0456,-0.18245 -0.12995,-0.3811 -0.0843,-0.19865 -0.15323,-0.39104 -0.15314,-0.42753 9e-5,-0.0365 0.12995,-0.0975 0.28857,-0.13553 0.15862,-0.038 0.28639,-0.099 0.28393,-0.13554 -0.002,-0.0365 -0.0493,-0.19365 -0.10408,-0.34925 l -0.0996,-0.28291 -0.54981,-0.18422 c -1.17831,-0.39481 -1.7223,-0.84701 -1.7223,-1.4317 0,-0.50087 0.67295,-0.86121 1.89486,-1.01464 0.2321,-0.0291 0.43176,-0.0627 0.44367,-0.0747 0.0119,-0.0119 0.12762,-0.37097 0.25712,-0.7979 0.28266,-0.93189 0.36091,-1.02596 0.98664,-1.18616 0.60793,-0.15565 2.14856,-0.15565 2.75649,0 0.62573,0.1602 0.70398,0.25427 0.98664,1.18616 0.1295,0.42693 0.2452,0.78598 0.25712,0.7979 0.0119,0.0119 0.21157,0.0455 0.44367,0.0747 1.22191,0.15343 1.89486,0.51377 1.89486,1.01464 0,0.58469 -0.54399,1.03689 -1.7223,1.4317 l -0.54981,0.18422 -0.0996,0.28291 c -0.0548,0.1556 -0.10162,0.31276 -0.10408,0.34925 -0.002,0.0365 0.12531,0.0975 0.28393,0.13554 0.15862,0.038 0.28848,0.099 0.28857,0.13553 1.2e-4,0.0365 -0.0688,0.22888 -0.15314,0.42753 -0.0843,0.19865 -0.14279,0.37014 -0.12995,0.3811 0.0128,0.011 0.23658,0.12987 0.49719,0.26425 0.2606,0.13438 0.63348,0.39118 0.82862,0.57066 l 0.3548,0.32633 0.2589,2.04512 0.25889,2.04512 -0.12374,0.10019 c -0.33433,0.27073 -1.55719,0.57629 -2.84276,0.71034 -1.01809,0.10615 -3.0822,0.1072 -3.99603,0.002 z m 1.47988,-8.13764 c 0.0902,-0.0466 0.16402,-0.10526 0.16402,-0.13026 0,-0.025 -0.42828,-0.21649 -0.95173,-0.42556 -0.87762,-0.35054 -0.95173,-0.37086 -0.95173,-0.26098 0,0.31923 0.42654,0.77553 0.8516,0.91102 0.20342,0.0648 0.67755,0.0145 0.88784,-0.0942 z m 2.2199,-0.0548 c 0.25847,-0.15147 0.53975,-0.54858 0.53975,-0.76201 0,-0.10988 -0.0741,-0.0896 -0.95173,0.26097 -0.52345,0.20907 -0.95173,0.40033 -0.95173,0.42502 0,0.0247 0.0584,0.0763 0.12978,0.11461 0.3725,0.20013 0.85218,0.18513 1.23393,-0.0386 z"
       id="path896-0" />
    <path
       style="opacity:1;fill:#760d0d;fill-opacity:1;stroke-width:1"
       d="m 180.43237,194.21787 c -1.15996,-0.1335 -2.07075,-0.36275 -2.55479,-0.64304 l -0.24757,-0.14337 0.035,-0.32781 c 0.0192,-0.18029 0.0951,-1.10642 0.16864,-2.05805 l 0.13369,-1.73025 0.35496,-0.32647 c 0.19522,-0.17956 0.56817,-0.43642 0.82877,-0.5708 0.26061,-0.13438 0.48434,-0.25329 0.49719,-0.26425 0.0128,-0.011 -0.0456,-0.18245 -0.12995,-0.3811 -0.0843,-0.19865 -0.15323,-0.39104 -0.15314,-0.42753 9e-5,-0.0365 0.12995,-0.0975 0.28857,-0.13553 0.15862,-0.038 0.28639,-0.099 0.28393,-0.13554 -0.002,-0.0365 -0.0493,-0.19365 -0.10408,-0.34925 l -0.0996,-0.28291 -0.54981,-0.18422 c -1.17831,-0.39481 -1.7223,-0.84701 -1.7223,-1.4317 0,-0.50087 0.67295,-0.86121 1.89486,-1.01464 0.2321,-0.0291 0.43176,-0.0627 0.44367,-0.0747 0.0119,-0.0119 0.12762,-0.37097 0.25712,-0.7979 0.28266,-0.9319 0.36091,-1.02597 0.98664,-1.18617 0.60793,-0.15564 2.14856,-0.15564 2.75649,0 0.62573,0.1602 0.70398,0.25427 0.98664,1.18617 0.1295,0.42693 0.2452,0.78598 0.25712,0.7979 0.0119,0.0119 0.21157,0.0455 0.44367,0.0747 1.22191,0.15343 1.89486,0.51377 1.89486,1.01464 0,0.58469 -0.54399,1.03689 -1.7223,1.4317 l -0.54981,0.18422 -0.0996,0.28291 c -0.0548,0.1556 -0.10162,0.31276 -0.10408,0.34925 -0.002,0.0365 0.12531,0.0975 0.28393,0.13554 0.15862,0.038 0.28848,0.099 0.28857,0.13553 1.2e-4,0.0365 -0.0688,0.22888 -0.15314,0.42753 -0.0843,0.19865 -0.14279,0.37014 -0.12995,0.3811 0.0128,0.011 0.23658,0.12987 0.49719,0.26425 0.2606,0.13438 0.63348,0.39118 0.82862,0.57066 l 0.3548,0.32633 0.2589,2.04512 0.25889,2.04512 -0.12374,0.10019 c -0.33433,0.27073 -1.55719,0.57629 -2.84276,0.71034 -1.01809,0.10615 -3.0822,0.1072 -3.99603,0.002 z m 1.47988,-8.13764 c 0.0902,-0.0466 0.16402,-0.10526 0.16402,-0.13026 0,-0.025 -0.42828,-0.21649 -0.95173,-0.42556 -0.87762,-0.35054 -0.95173,-0.37086 -0.95173,-0.26098 0,0.31923 0.42654,0.77553 0.8516,0.91102 0.20342,0.0648 0.67755,0.0145 0.88784,-0.0942 z m 2.2199,-0.0548 c 0.25847,-0.15147 0.53975,-0.54858 0.53975,-0.76201 0,-0.10989 -0.0741,-0.0896 -0.95173,0.26097 -0.52345,0.20907 -0.95173,0.40033 -0.95173,0.42502 0,0.0247 0.0584,0.0763 0.12978,0.11461 0.3725,0.20013 0.85218,0.18513 1.23393,-0.0386 z"
       id="path896-9" />
    <path
       id="path896-9-3"
       d="m 74.862741,180.63204 c -1.15996,-0.1335 -2.07075,-0.36275 -2.55479,-0.64304 l -0.24757,-0.14337 0.035,-0.32781 c 0.0192,-0.18029 0.0951,-1.10642 0.16864,-2.05805 l 0.13369,-1.73025 0.35496,-0.32647 c 0.19522,-0.17956 0.56817,-0.43642 0.82877,-0.5708 0.26061,-0.13438 0.48434,-0.25329 0.49719,-0.26425 0.0128,-0.011 -0.0456,-0.18245 -0.12995,-0.3811 -0.0843,-0.19865 -0.15323,-0.39104 -0.15314,-0.42753 9e-5,-0.0365 0.12995,-0.0975 0.28857,-0.13553 0.15862,-0.038 0.28639,-0.099 0.28393,-0.13554 -0.002,-0.0365 -0.0493,-0.19365 -0.10408,-0.34925 l -0.0996,-0.28291 -0.54981,-0.18422 c -1.17831,-0.39481 -1.7223,-0.84701 -1.7223,-1.4317 0,-0.50087 0.67295,-0.86121 1.89486,-1.01464 0.2321,-0.0291 0.43176,-0.0627 0.44367,-0.0747 0.0119,-0.0119 0.12762,-0.37097 0.25712,-0.7979 0.28266,-0.9319 0.36091,-1.02597 0.98664,-1.18617 0.60793,-0.15564 2.14856,-0.15564 2.75649,0 0.62573,0.1602 0.70398,0.25427 0.98664,1.18617 0.1295,0.42693 0.2452,0.78598 0.25712,0.7979 0.0119,0.0119 0.21157,0.0455 0.44367,0.0747 1.22191,0.15343 1.89486,0.51377 1.89486,1.01464 0,0.58469 -0.54399,1.03689 -1.7223,1.4317 l -0.54981,0.18422 -0.0996,0.28291 c -0.0548,0.1556 -0.10162,0.31276 -0.10408,0.34925 -0.002,0.0365 0.12531,0.0975 0.28393,0.13554 0.15862,0.038 0.28848,0.099 0.28857,0.13553 1.2e-4,0.0365 -0.0688,0.22888 -0.15314,0.42753 -0.0843,0.19865 -0.14279,0.37014 -0.12995,0.3811 0.0128,0.011 0.23658,0.12987 0.49719,0.26425 0.2606,0.13438 0.63348,0.39118 0.82862,0.57066 l 0.3548,0.32633 0.2589,2.04512 0.25889,2.04512 -0.12374,0.10019 c -0.33433,0.27073 -1.55719,0.57629 -2.84276,0.71034 -1.01809,0.10615 -3.0822,0.1072 -3.99603,0.002 z m 1.47988,-8.13764 c 0.0902,-0.0466 0.16402,-0.10526 0.16402,-0.13026 0,-0.025 -0.42828,-0.21649 -0.95173,-0.42556 -0.87762,-0.35054 -0.95173,-0.37086 -0.95173,-0.26098 0,0.31923 0.42654,0.77553 0.8516,0.91102 0.20342,0.0648 0.67755,0.0145 0.88784,-0.0942 z m 2.2199,-0.0548 c 0.25847,-0.15147 0.53975,-0.54858 0.53975,-0.76201 0,-0.10989 -0.0741,-0.0896 -0.95173,0.26097 -0.52345,0.20907 -0.95173,0.40033 -0.95173,0.42502 0,0.0247 0.0584,0.0763 0.12978,0.11461 0.3725,0.20013 0.85218,0.18513 1.23393,-0.0386 z"
       style="opacity:1;fill:#760d0d;fill-opacity:1;stroke-width:1" />
    <path
       id="path896-9-6"
       d="m 18.665278,199.27405 c -1.15996,-0.1335 -2.07075,-0.36275 -2.55479,-0.64304 l -0.24757,-0.14337 0.035,-0.32781 c 0.0192,-0.18029 0.0951,-1.10642 0.16864,-2.05805 l 0.13369,-1.73025 0.35496,-0.32647 c 0.19522,-0.17956 0.56817,-0.43642 0.82877,-0.5708 0.26061,-0.13438 0.48434,-0.25329 0.49719,-0.26425 0.0128,-0.011 -0.0456,-0.18245 -0.12995,-0.3811 -0.0843,-0.19865 -0.15323,-0.39104 -0.15314,-0.42753 9e-5,-0.0365 0.12995,-0.0975 0.28857,-0.13553 0.15862,-0.038 0.28639,-0.099 0.28393,-0.13554 -0.002,-0.0365 -0.0493,-0.19365 -0.10408,-0.34925 l -0.0996,-0.28291 -0.54981,-0.18422 c -1.17831,-0.39481 -1.7223,-0.84701 -1.7223,-1.4317 0,-0.50087 0.67295,-0.86121 1.89486,-1.01464 0.2321,-0.0291 0.43176,-0.0627 0.44367,-0.0747 0.0119,-0.0119 0.12762,-0.37097 0.25712,-0.7979 0.28266,-0.9319 0.36091,-1.02597 0.98664,-1.18617 0.60793,-0.15564 2.14856,-0.15564 2.75649,0 0.62573,0.1602 0.70398,0.25427 0.98664,1.18617 0.1295,0.42693 0.2452,0.78598 0.25712,0.7979 0.0119,0.0119 0.21157,0.0455 0.44367,0.0747 1.22191,0.15343 1.89486,0.51377 1.89486,1.01464 0,0.58469 -0.54399,1.03689 -1.7223,1.4317 l -0.54981,0.18422 -0.0996,0.28291 c -0.0548,0.1556 -0.10162,0.31276 -0.10408,0.34925 -0.002,0.0365 0.12531,0.0975 0.28393,0.13554 0.15862,0.038 0.28848,0.099 0.28857,0.13553 1.2e-4,0.0365 -0.0688,0.22888 -0.15314,0.42753 -0.0843,0.19865 -0.14279,0.37014 -0.12995,0.3811 0.0128,0.011 0.23658,0.12987 0.49719,0.26425 0.2606,0.13438 0.63348,0.39118 0.82862,0.57066 l 0.3548,0.32633 0.2589,2.04512 0.25889,2.04512 -0.12374,0.10019 c -0.33433,0.27073 -1.55719,0.57629 -2.84276,0.71034 -1.01809,0.10615 -3.0822,0.1072 -3.99603,0.002 z m 1.47988,-8.13764 c 0.0902,-0.0466 0.16402,-0.10526 0.16402,-0.13026 0,-0.025 -0.42828,-0.21649 -0.95173,-0.42556 -0.87762,-0.35054 -0.95173,-0.37086 -0.95173,-0.26098 0,0.31923 0.42654,0.77553 0.8516,0.91102 0.20342,0.0648 0.67755,0.0145 0.88784,-0.0942 z m 2.2199,-0.0548 c 0.25847,-0.15147 0.53975,-0.54858 0.53975,-0.76201 0,-0.10989 -0.0741,-0.0896 -0.95173,0.26097 -0.52345,0.20907 -0.95173,0.40033 -0.95173,0.42502 0,0.0247 0.0584,0.0763 0.12978,0.11461 0.3725,0.20013 0.85218,0.18513 1.23393,-0.0386 z"
       style="opacity:1;fill:#760d0d;fill-opacity:1;stroke-width:1" />
    <path
       id="path896-9-0"
       d="m 73.902428,17.097259 c -1.15996,-0.1335 -2.070749,-0.36275 -2.55479,-0.64304 l -0.24757,-0.14337 0.035,-0.32781 c 0.0192,-0.18029 0.0951,-1.10642 0.16864,-2.05805 l 0.13369,-1.73025 0.35496,-0.32647 c 0.19522,-0.17956 0.56817,-0.43642 0.82877,-0.5708 0.26061,-0.13438 0.48434,-0.25329 0.49719,-0.26425 0.0128,-0.011 -0.0456,-0.18245 -0.12995,-0.3811 -0.0843,-0.19865 -0.15323,-0.39104 -0.15314,-0.42753 9e-5,-0.0365 0.12995,-0.0975 0.28857,-0.13553 0.15862,-0.038 0.28639,-0.099 0.28393,-0.1355397 -0.002,-0.0365 -0.0493,-0.19365 -0.10408,-0.34925 l -0.0996,-0.28291 -0.54981,-0.18422 c -1.17831,-0.39481 -1.7223,-0.84701 -1.7223,-1.4317 0,-0.50087 0.67295,-0.86121 1.89486,-1.01464 0.2321,-0.0291 0.43176,-0.0627 0.44367,-0.0747 0.0119,-0.0119 0.12762,-0.37097 0.25712,-0.7979 0.28266,-0.9319 0.36091,-1.02597 0.986641,-1.18617 0.607929,-0.15564 2.14856,-0.15564 2.75649,0 0.62573,0.1602 0.70398,0.25427 0.98664,1.18617 0.1295,0.42693 0.245199,0.78598 0.257119,0.7979 0.0119,0.0119 0.211571,0.0455 0.44367,0.0747 1.221911,0.15343 1.894861,0.51377 1.894861,1.01464 0,0.58469 -0.54399,1.03689 -1.7223,1.4317 l -0.549811,0.18422 -0.0996,0.28291 c -0.0548,0.1556 -0.101619,0.31276 -0.10408,0.34925 -0.002,0.0365 0.125311,0.0975 0.283931,0.1355397 0.158619,0.038 0.28848,0.099 0.28857,0.13553 1.19e-4,0.0365 -0.0688,0.22888 -0.15314,0.42753 -0.0843,0.19865 -0.142791,0.37014 -0.129951,0.3811 0.0128,0.011 0.236581,0.12987 0.497191,0.26425 0.2606,0.13438 0.63348,0.39118 0.82862,0.57066 l 0.354799,0.32633 0.258901,2.04512 0.25889,2.04512 -0.12374,0.10019 c -0.33433,0.27073 -1.557191,0.57629 -2.842761,0.71034 -1.018089,0.10615 -3.0822,0.1072 -3.996029,0.002 z m 1.47988,-8.1376397 c 0.0902,-0.0466 0.16402,-0.10526 0.16402,-0.13026 0,-0.025 -0.42828,-0.21649 -0.951729,-0.42556 -0.87762,-0.35054 -0.95173,-0.37086 -0.95173,-0.26098 0,0.31923 0.426539,0.77553 0.851599,0.91102 0.20342,0.0648 0.67755,0.0145 0.88784,-0.0942 z m 2.219901,-0.0548 c 0.25847,-0.15147 0.53975,-0.54858 0.53975,-0.76201 0,-0.10989 -0.0741,-0.0896 -0.95173,0.26097 -0.523451,0.20907 -0.95173,0.40033 -0.95173,0.42502 0,0.0247 0.0584,0.0763 0.129779,0.11461 0.3725,0.20013 0.852181,0.18513 1.233931,-0.0386 z"
       style="opacity:1;fill:#760d0d;fill-opacity:1;stroke-width:1" />
    <path
       id="path896-9-62"
       d="m 72.133221,40.440866 c -1.15996,-0.1335 -2.07075,-0.36275 -2.55479,-0.64304 l -0.24757,-0.14337 0.035,-0.32781 c 0.0192,-0.18029 0.0951,-1.10642 0.16864,-2.05805 l 0.13369,-1.73025 0.35496,-0.32647 c 0.19522,-0.17956 0.56817,-0.43642 0.82877,-0.5708 0.26061,-0.13438 0.48434,-0.25329 0.49719,-0.26425 0.0128,-0.011 -0.0456,-0.18245 -0.12995,-0.3811 -0.0843,-0.19865 -0.15323,-0.39104 -0.15314,-0.42753 9e-5,-0.0365 0.12995,-0.0975 0.28857,-0.13553 0.15862,-0.038 0.28639,-0.099 0.28393,-0.13554 -0.002,-0.0365 -0.0493,-0.19365 -0.10408,-0.34925 l -0.0996,-0.28291 -0.54981,-0.18422 c -1.17831,-0.39481 -1.7223,-0.84701 -1.7223,-1.4317 0,-0.50087 0.67295,-0.86121 1.89486,-1.01464 0.2321,-0.0291 0.43176,-0.0627 0.44367,-0.0747 0.0119,-0.0119 0.12762,-0.37097 0.25712,-0.7979 0.28266,-0.9319 0.36091,-1.02597 0.98664,-1.18617 0.60793,-0.15564 2.14856,-0.15564 2.75649,0 0.62573,0.1602 0.70398,0.25427 0.98664,1.18617 0.1295,0.42693 0.2452,0.78598 0.25712,0.7979 0.0119,0.0119 0.21157,0.0455 0.44367,0.0747 1.22191,0.15343 1.89486,0.51377 1.89486,1.01464 0,0.58469 -0.54399,1.03689 -1.7223,1.4317 l -0.54981,0.18422 -0.0996,0.28291 c -0.0548,0.1556 -0.10162,0.31276 -0.10408,0.34925 -0.002,0.0365 0.12531,0.0975 0.28393,0.13554 0.15862,0.038 0.28848,0.099 0.28857,0.13553 1.2e-4,0.0365 -0.0688,0.22888 -0.15314,0.42753 -0.0843,0.19865 -0.14279,0.37014 -0.12995,0.3811 0.0128,0.011 0.23658,0.12987 0.49719,0.26425 0.2606,0.13438 0.63348,0.39118 0.82862,0.57066 l 0.3548,0.32633 0.2589,2.04512 0.25889,2.04512 -0.12374,0.10019 c -0.33433,0.27073 -1.55719,0.57629 -2.84276,0.71034 -1.01809,0.10615 -3.0822,0.1072 -3.99603,0.002 z m 1.47988,-8.13764 c 0.0902,-0.0466 0.16402,-0.10526 0.16402,-0.13026 0,-0.025 -0.42828,-0.21649 -0.95173,-0.42556 -0.87762,-0.35054 -0.95173,-0.37086 -0.95173,-0.26098 0,0.31923 0.42654,0.77553 0.8516,0.91102 0.20342,0.0648 0.67755,0.0145 0.88784,-0.0942 z m 2.2199,-0.0548 c 0.25847,-0.15147 0.53975,-0.54858 0.53975,-0.76201 0,-0.10989 -0.0741,-0.0896 -0.95173,0.26097 -0.52345,0.20907 -0.95173,0.40033 -0.95173,0.42502 0,0.0247 0.0584,0.0763 0.12978,0.11461 0.3725,0.20013 0.85218,0.18513 1.23393,-0.0386 z"
       style="opacity:1;fill:#760d0d;fill-opacity:1;stroke-width:1" />
    <path
       id="path896-9-61"
       d="m 72.184705,60.397482 c -1.15996,-0.1335 -2.07075,-0.36275 -2.55479,-0.64304 l -0.24757,-0.14337 0.035,-0.32781 c 0.0192,-0.18029 0.0951,-1.10642 0.16864,-2.05805 l 0.13369,-1.73025 0.35496,-0.32647 c 0.19522,-0.17956 0.56817,-0.43642 0.82877,-0.5708 0.26061,-0.13438 0.48434,-0.25329 0.49719,-0.26425 0.0128,-0.011 -0.0456,-0.18245 -0.12995,-0.3811 -0.0843,-0.19865 -0.15323,-0.39104 -0.15314,-0.42753 9e-5,-0.0365 0.12995,-0.0975 0.28857,-0.13553 0.15862,-0.038 0.28639,-0.099 0.28393,-0.13554 -0.002,-0.0365 -0.0493,-0.19365 -0.10408,-0.34925 l -0.0996,-0.282911 -0.54981,-0.184219 c -1.17831,-0.39481 -1.7223,-0.84701 -1.7223,-1.4317 0,-0.50087 0.67295,-0.86121 1.89486,-1.01464 0.2321,-0.0291 0.43176,-0.0627 0.44367,-0.0747 0.0119,-0.0119 0.12762,-0.37097 0.25712,-0.7979 0.28266,-0.9319 0.36091,-1.02597 0.98664,-1.18617 0.60793,-0.15564 2.148565,-0.15564 2.756495,0 0.62573,0.1602 0.70398,0.25427 0.98664,1.18617 0.1295,0.42693 0.24519,0.78598 0.25711,0.7979 0.0119,0.0119 0.21158,0.0455 0.44367,0.0747 1.22192,0.15343 1.89487,0.51377 1.89487,1.01464 0,0.58469 -0.54399,1.03689 -1.7223,1.4317 l -0.54982,0.184219 -0.0996,0.282911 c -0.0548,0.1556 -0.10161,0.31276 -0.10408,0.34925 -0.002,0.0365 0.12532,0.0975 0.28394,0.13554 0.15861,0.038 0.28848,0.099 0.28857,0.13553 1.1e-4,0.0365 -0.0688,0.22888 -0.15314,0.42753 -0.0843,0.19865 -0.1428,0.37014 -0.12996,0.3811 0.0128,0.011 0.23659,0.12987 0.4972,0.26425 0.2606,0.13438 0.63348,0.39118 0.82862,0.57066 l 0.35479,0.32633 0.25891,2.04512 0.25889,2.04512 -0.12374,0.10019 c -0.33433,0.27073 -1.5572,0.57629 -2.84277,0.71034 -1.01808,0.10615 -3.082195,0.1072 -3.996025,0.002 z m 1.47988,-8.13764 c 0.0902,-0.0466 0.16402,-0.10526 0.16402,-0.13026 0,-0.025 -0.42828,-0.21649 -0.95173,-0.42556 -0.87762,-0.350541 -0.95173,-0.370861 -0.95173,-0.26098 0,0.31923 0.42654,0.77553 0.8516,0.91102 0.20342,0.0648 0.67755,0.0145 0.88784,-0.0942 z m 2.219905,-0.0548 c 0.25847,-0.15147 0.53975,-0.54858 0.53975,-0.76201 0,-0.10989 -0.0741,-0.0896 -0.95173,0.260969 -0.52346,0.209071 -0.95173,0.400331 -0.95173,0.425021 0,0.0247 0.0584,0.0763 0.12977,0.11461 0.3725,0.20013 0.85219,0.18513 1.23394,-0.0386 z"
       style="opacity:1;fill:#760d0d;fill-opacity:1;stroke-width:1" />
  </g>
</svg>
