<?xml version="1.0" encoding="UTF-8" standalone="no"?>
<svg
   xmlns:dc="http://purl.org/dc/elements/1.1/"
   xmlns:cc="http://creativecommons.org/ns#"
   xmlns:rdf="http://www.w3.org/1999/02/22-rdf-syntax-ns#"
   xmlns:svg="http://www.w3.org/2000/svg"
   xmlns="http://www.w3.org/2000/svg"
   xmlns:sodipodi="http://sodipodi.sourceforge.net/DTD/sodipodi-0.dtd"
   xmlns:inkscape="http://www.inkscape.org/namespaces/inkscape"
   width="297mm"
   height="210mm"
   viewBox="0 0 297 210"
   version="1.1"
   id="svg8"
   inkscape:version="1.0 (4035a4fb49, 2020-05-01)"
   sodipodi:docname="threat-model-prod.svg"
   inkscape:export-filename="/home/mark/dev/evs-web2/threat-model-prod.png"
   inkscape:export-xdpi="89.988571"
   inkscape:export-ydpi="89.988571">
  <defs
     id="defs2">
    <inkscape:path-effect
       effect="simplify"
       id="path-effect20"
       is_visible="true"
       lpeversion="1"
       steps="1"
       threshold="0.000851064"
       smooth_angles="360"
       helper_size="0"
       simplify_individual_paths="false"
       simplify_just_coalesce="false" />
    <inkscape:path-effect
       effect="simplify"
       id="path-effect16"
       is_visible="true"
       lpeversion="1"
       steps="1"
       threshold="0.000851064"
       smooth_angles="360"
       helper_size="0"
       simplify_individual_paths="false"
       simplify_just_coalesce="false" />
    <inkscape:path-effect
       effect="simplify"
       id="path-effect12"
       is_visible="true"
       lpeversion="1"
       steps="1"
       threshold="0.000851064"
       smooth_angles="360"
       helper_size="0"
       simplify_individual_paths="false"
       simplify_just_coalesce="false" />
  </defs>
  <sodipodi:namedview
     id="base"
     pagecolor="#464646"
     bordercolor="#666666"
     borderopacity="1.0"
     inkscape:pageopacity="1"
     inkscape:pageshadow="2"
     inkscape:zoom="0.8391835"
     inkscape:cx="277.55676"
     inkscape:cy="396.85039"
     inkscape:document-units="mm"
     inkscape:current-layer="layer1"
     inkscape:document-rotation="0"
     showgrid="false"
     inkscape:window-width="1530"
     inkscape:window-height="1205"
     inkscape:window-x="754"
     inkscape:window-y="84"
     inkscape:window-maximized="0"
     inkscape:snap-text-baseline="false" />
  <metadata
     id="metadata5">
    <rdf:RDF>
      <cc:Work
         rdf:about="">
        <dc:format>image/svg+xml</dc:format>
        <dc:type
           rdf:resource="http://purl.org/dc/dcmitype/StillImage" />
        <dc:title></dc:title>
      </cc:Work>
    </rdf:RDF>
  </metadata>
  <g
     style="opacity:1"
     inkscape:label="Layer 1"
     inkscape:groupmode="layer"
     id="layer1">
    <rect
       y="14.730083"
       x="98.607605"
       height="170.86072"
       width="176.32184"
       id="rect876-2"
       style="color:#000000;font-variation-settings:normal;clip-rule:nonzero;display:inline;overflow:visible;visibility:visible;opacity:1;isolation:auto;color-interpolation:sRGB;color-interpolation-filters:linearRGB;solid-color:#000000;solid-opacity:1;vector-effect:none;fill:#e4bcc3;fill-opacity:1;fill-rule:evenodd;stroke:#963c4d;stroke-width:0.264583px;stroke-linecap:butt;stroke-linejoin:miter;stroke-miterlimit:4;stroke-dasharray:none;stroke-dashoffset:0;stroke-opacity:1;marker:none;color-rendering:auto;image-rendering:auto;shape-rendering:auto;text-rendering:auto;enable-background:accumulate;stop-color:#000000;stop-opacity:1" />
    <path
       id="path18"
       style="fill:#c97887;fill-opacity:1;fill-rule:evenodd;stroke:#963c4d;stroke-width:0.264583px;stroke-linecap:butt;stroke-linejoin:miter;stroke-opacity:1"
       d="m 62.581629,79.935681 c -1.599794,-2.775313 -4.400357,-4.776193 -7.647227,-5.011189 -3.269029,-0.638028 -7.121696,-0.352751 -9.175864,2.594696 -1.850737,0.924819 -2.988986,3.360909 -4.863582,3.377194 -2.190151,-2.086656 -5.279257,-5.789905 -8.243236,-2.404037 -2.24051,2.077683 -5.577279,3.312054 -6.31306,6.624485 -0.01069,3.207668 -4.45473,0.285895 -6.295055,2.526659 -3.691036,2.786198 -6.078048,7.405628 -6.109447,12.050278 1.173741,2.809103 -2.582486,5.597083 -1.12245,8.586203 2.227272,2.98543 6.300074,3.72619 9.747094,4.49133 3.113198,0.44167 6.473192,3.38489 9.269553,0.43778 1.364042,-1.3361 2.590646,-2.58809 3.527912,-0.18055 3.08211,3.98965 8.454618,4.68979 13.139151,5.12664 2.998616,0.53408 5.944019,-1.10205 8.841422,-0.49549 3.047385,1.80583 7.218328,2.57087 10.167698,0.18202 2.133206,-1.8634 1.78944,-6.57106 5.834257,-5.33435 3.569924,0.7556 7.394298,-0.15868 9.660023,-3.18453 2.524071,-1.68804 1.80457,-5.2974 3.41051,-7.95404 1.273475,-2.826243 -2.115798,-5.254853 -0.662891,-7.868633 0.518622,-3.32928 1.055595,-7.818299 -2.729367,-9.457889 -2.216908,-1.62433 -5.90408,0.444295 -6.448412,-2.687331 -2.643387,-2.145601 -6.323097,-1.103278 -9.394292,-1.411589 -1.341246,-1.171472 -3.122922,-0.813266 -4.592737,-0.0077 z" />
    <rect
       y="149.58119"
       x="11.851055"
       height="20.437529"
       width="34.610523"
       id="rect876-5"
       style="color:#000000;font-variation-settings:normal;clip-rule:nonzero;display:inline;overflow:visible;visibility:visible;opacity:1;isolation:auto;color-interpolation:sRGB;color-interpolation-filters:linearRGB;solid-color:#000000;solid-opacity:1;vector-effect:none;fill:#c97887;fill-opacity:1;fill-rule:evenodd;stroke:#963c4d;stroke-width:0.264583px;stroke-linecap:butt;stroke-linejoin:miter;stroke-miterlimit:4;stroke-dasharray:none;stroke-dashoffset:0;stroke-opacity:1;marker:none;color-rendering:auto;image-rendering:auto;shape-rendering:auto;text-rendering:auto;enable-background:accumulate;stop-color:#000000;stop-opacity:1" />
    <path
       style="fill:none;fill-rule:evenodd;stroke:#ffffff;stroke-width:0.264583px;stroke-linecap:butt;stroke-linejoin:miter;stroke-opacity:1;font-variation-settings:normal;opacity:1;vector-effect:none;fill-opacity:1;stroke-miterlimit:4;stroke-dasharray:none;stroke-dashoffset:0;stop-color:#000000;stop-opacity:1"
       d="M 32.480199,149.58119 42.959782,117.36333"
       id="path998"
       inkscape:connector-type="polyline"
       inkscape:connector-curvature="0"
       inkscape:connection-start="#rect876-5"
       inkscape:connection-end="#path18" />
    <text
       id="text1036-6"
       y="100.79752"
       x="33.360016"
       style="font-style:normal;font-variant:normal;font-weight:normal;font-stretch:normal;font-size:7.05556px;line-height:125%;font-family:Dadhand;-inkscape-font-specification:'Dadhand, Normal';font-variant-ligatures:normal;font-variant-caps:normal;font-variant-numeric:normal;font-variant-east-asian:normal;letter-spacing:0px;word-spacing:0px;fill:#000000;fill-opacity:1;stroke:none;stroke-width:0.264583px;stroke-linecap:butt;stroke-linejoin:miter;stroke-opacity:1"
       xml:space="preserve"><tspan
         id="tspan1038-6"
         style="font-style:normal;font-variant:normal;font-weight:normal;font-stretch:normal;font-size:11.2889px;font-family:Dadhand;-inkscape-font-specification:'Dadhand, Normal';font-variant-ligatures:normal;font-variant-caps:normal;font-variant-numeric:normal;font-variant-east-asian:normal;fill:#ffffff;fill-opacity:1;stroke-width:0.264583px"
         y="100.79752"
         x="33.360016"
         sodipodi:role="line">Internet</tspan></text>
    <text
       xml:space="preserve"
       style="font-style:normal;font-variant:normal;font-weight:normal;font-stretch:normal;font-size:7.05556px;line-height:125%;font-family:Dadhand;-inkscape-font-specification:'Dadhand, Normal';font-variant-ligatures:normal;font-variant-caps:normal;font-variant-numeric:normal;font-variant-east-asian:normal;letter-spacing:0px;word-spacing:0px;fill:#000000;fill-opacity:1;stroke:none;stroke-width:0.264583px;stroke-linecap:butt;stroke-linejoin:miter;stroke-opacity:1"
       x="138.14024"
       y="36.713696"
       id="text1036-6-4"><tspan
         sodipodi:role="line"
         x="138.14024"
         y="36.713696"
         style="font-style:normal;font-variant:normal;font-weight:normal;font-stretch:normal;font-size:11.2889px;font-family:Dadhand;-inkscape-font-specification:'Dadhand, Normal';font-variant-ligatures:normal;font-variant-caps:normal;font-variant-numeric:normal;font-variant-east-asian:normal;text-align:center;text-anchor:middle;fill:#ffffff;fill-opacity:1;stroke-width:0.264583px"
         id="tspan1038-6-3">AWS prod</tspan><tspan
         sodipodi:role="line"
         x="138.14024"
         y="46.400887"
         style="font-style:normal;font-variant:normal;font-weight:normal;font-stretch:normal;font-size:11.2889px;font-family:Dadhand;-inkscape-font-specification:'Dadhand, Normal';font-variant-ligatures:normal;font-variant-caps:normal;font-variant-numeric:normal;font-variant-east-asian:normal;text-align:center;text-anchor:middle;fill:#ffffff;fill-opacity:1;stroke-width:0.264583px"
         id="tspan1144">deployment</tspan></text>
    <text
       xml:space="preserve"
       style="font-style:normal;font-variant:normal;font-weight:normal;font-stretch:normal;font-size:6.35px;line-height:125%;font-family:Dadhand;-inkscape-font-specification:'Dadhand, Normal';font-variant-ligatures:normal;font-variant-caps:normal;font-variant-numeric:normal;font-variant-east-asian:normal;letter-spacing:0px;word-spacing:0px;fill:#000000;fill-opacity:1;stroke:none;stroke-width:0.264583px;stroke-linecap:butt;stroke-linejoin:miter;stroke-opacity:1"
       x="29.125942"
       y="157.79836"
       id="text1036-6-9"><tspan
         sodipodi:role="line"
         x="29.125942"
         y="157.79836"
         style="font-style:normal;font-variant:normal;font-weight:normal;font-stretch:normal;font-size:6.35px;font-family:Dadhand;-inkscape-font-specification:'Dadhand, Normal';font-variant-ligatures:normal;font-variant-caps:normal;font-variant-numeric:normal;font-variant-east-asian:normal;text-align:center;text-anchor:middle;fill:#ffffff;fill-opacity:1;stroke-width:0.264583px"
         id="tspan1038-6-7">Payment</tspan><tspan
         sodipodi:role="line"
         x="29.125942"
         y="165.73586"
         style="font-style:normal;font-variant:normal;font-weight:normal;font-stretch:normal;font-size:6.35px;font-family:Dadhand;-inkscape-font-specification:'Dadhand, Normal';font-variant-ligatures:normal;font-variant-caps:normal;font-variant-numeric:normal;font-variant-east-asian:normal;text-align:center;text-anchor:middle;fill:#ffffff;fill-opacity:1;stroke-width:0.264583px"
         id="tspan1320">services</tspan></text>
    <path
       inkscape:connection-start="#rect876-5"
       inkscape:connector-curvature="0"
       inkscape:connector-type="polyline"
       id="path87"
       d="m 26.217795,170.01872 -6.072637,21.11771"
       style="font-variation-settings:normal;opacity:1;vector-effect:none;fill:none;fill-opacity:1;fill-rule:evenodd;stroke:#ffffff;stroke-width:0.665;stroke-linecap:butt;stroke-linejoin:miter;stroke-miterlimit:4;stroke-dasharray:0.665,1.33;stroke-dashoffset:0;stroke-opacity:1;stop-color:#000000;stop-opacity:1" />
    <g
       id="g1258">
      <rect
         style="color:#000000;clip-rule:nonzero;display:inline;overflow:visible;visibility:visible;opacity:1;isolation:auto;color-interpolation:sRGB;color-interpolation-filters:linearRGB;solid-color:#000000;solid-opacity:1;vector-effect:none;fill:#c97887;fill-opacity:1;fill-rule:evenodd;stroke:#963c4d;stroke-width:0.264583px;stroke-linecap:butt;stroke-linejoin:miter;stroke-miterlimit:4;stroke-dasharray:none;stroke-dashoffset:0;stroke-opacity:1;marker:none;color-rendering:auto;image-rendering:auto;shape-rendering:auto;text-rendering:auto;enable-background:accumulate;stop-color:#000000;stop-opacity:1"
         id="rect876-6"
         width="34.610523"
         height="20.437529"
         x="116.33953"
         y="59.953926" />
      <text
         xml:space="preserve"
         style="font-style:normal;font-variant:normal;font-weight:normal;font-stretch:normal;font-size:7.05556px;line-height:125%;font-family:Dadhand;-inkscape-font-specification:'Dadhand, Normal';font-variant-ligatures:normal;font-variant-caps:normal;font-variant-numeric:normal;font-variant-east-asian:normal;letter-spacing:0px;word-spacing:0px;opacity:1;fill:#000000;fill-opacity:1;stroke:none;stroke-width:0.264583px;stroke-linecap:butt;stroke-linejoin:miter;stroke-opacity:1"
         x="122.07368"
         y="71.410942"
         id="text1036-7"><tspan
           sodipodi:role="line"
           x="122.07368"
           y="71.410942"
           style="font-style:normal;font-variant:normal;font-weight:normal;font-stretch:normal;font-size:7.05556px;font-family:Dadhand;-inkscape-font-specification:'Dadhand, Normal';font-variant-ligatures:normal;font-variant-caps:normal;font-variant-numeric:normal;font-variant-east-asian:normal;fill:#ffffff;fill-opacity:1;stroke-width:0.264583px"
           id="tspan1038-3">Hadoop</tspan></text>
    </g>
    <rect
       style="color:#000000;clip-rule:nonzero;display:inline;overflow:visible;visibility:visible;opacity:1;isolation:auto;color-interpolation:sRGB;color-interpolation-filters:linearRGB;solid-color:#000000;solid-opacity:1;vector-effect:none;fill:#c97887;fill-opacity:1;fill-rule:evenodd;stroke:#963c4d;stroke-width:0.264583px;stroke-linecap:butt;stroke-linejoin:miter;stroke-miterlimit:4;stroke-dasharray:none;stroke-dashoffset:0;stroke-opacity:1;marker:none;color-rendering:auto;image-rendering:auto;shape-rendering:auto;text-rendering:auto;enable-background:accumulate;stop-color:#000000;stop-opacity:1"
       id="rect876-6-5"
       width="34.610523"
       height="20.437529"
       x="177.22166"
       y="58.317322" />
    <text
       xml:space="preserve"
       style="font-style:normal;font-variant:normal;font-weight:normal;font-stretch:normal;font-size:7.05556px;line-height:125%;font-family:Dadhand;-inkscape-font-specification:'Dadhand, Normal';font-variant-ligatures:normal;font-variant-caps:normal;font-variant-numeric:normal;font-variant-east-asian:normal;letter-spacing:0px;word-spacing:0px;opacity:1;fill:#000000;fill-opacity:1;stroke:none;stroke-width:0.264583px;stroke-linecap:butt;stroke-linejoin:miter;stroke-opacity:1"
       x="190.05371"
       y="69.774338"
       id="text1036-7-6"><tspan
         sodipodi:role="line"
         x="190.05371"
         y="69.774338"
         style="font-style:normal;font-variant:normal;font-weight:normal;font-stretch:normal;font-size:7.05556px;font-family:Dadhand;-inkscape-font-specification:'Dadhand, Normal';font-variant-ligatures:normal;font-variant-caps:normal;font-variant-numeric:normal;font-variant-east-asian:normal;fill:#ffffff;fill-opacity:1;stroke-width:0.264583px"
         id="tspan1038-3-2">ZK</tspan></text>
    <g
       id="g1278">
      <rect
         y="102.73573"
         x="222.55646"
         height="20.437529"
         width="34.610523"
         id="rect876-6-9"
         style="color:#000000;clip-rule:nonzero;display:inline;overflow:visible;visibility:visible;opacity:1;isolation:auto;color-interpolation:sRGB;color-interpolation-filters:linearRGB;solid-color:#000000;solid-opacity:1;vector-effect:none;fill:#c97887;fill-opacity:1;fill-rule:evenodd;stroke:#963c4d;stroke-width:0.264583px;stroke-linecap:butt;stroke-linejoin:miter;stroke-miterlimit:4;stroke-dasharray:none;stroke-dashoffset:0;stroke-opacity:1;marker:none;color-rendering:auto;image-rendering:auto;shape-rendering:auto;text-rendering:auto;enable-background:accumulate;stop-color:#000000;stop-opacity:1" />
      <text
         id="text1036-7-1"
         y="115.47372"
         x="226.85133"
         style="font-style:normal;font-variant:normal;font-weight:normal;font-stretch:normal;font-size:7.05556px;line-height:125%;font-family:Dadhand;-inkscape-font-specification:'Dadhand, Normal';font-variant-ligatures:normal;font-variant-caps:normal;font-variant-numeric:normal;font-variant-east-asian:normal;letter-spacing:0px;word-spacing:0px;opacity:1;fill:#000000;fill-opacity:1;stroke:none;stroke-width:0.264583px;stroke-linecap:butt;stroke-linejoin:miter;stroke-opacity:1"
         xml:space="preserve"><tspan
           id="tspan1038-3-27"
           style="font-style:normal;font-variant:normal;font-weight:normal;font-stretch:normal;font-size:7.05556px;font-family:Dadhand;-inkscape-font-specification:'Dadhand, Normal';font-variant-ligatures:normal;font-variant-caps:normal;font-variant-numeric:normal;font-variant-east-asian:normal;fill:#ffffff;fill-opacity:1;stroke-width:0.264583px"
           y="115.47372"
           x="226.85133"
           sodipodi:role="line">Accumulo</tspan></text>
    </g>
    <g
       id="g1268">
      <rect
         y="111.36333"
         x="118.17165"
         height="20.437529"
         width="34.610523"
         id="rect876-6-6"
         style="color:#000000;clip-rule:nonzero;display:inline;overflow:visible;visibility:visible;opacity:1;isolation:auto;color-interpolation:sRGB;color-interpolation-filters:linearRGB;solid-color:#000000;solid-opacity:1;vector-effect:none;fill:#c97887;fill-opacity:1;fill-rule:evenodd;stroke:#963c4d;stroke-width:0.264583px;stroke-linecap:butt;stroke-linejoin:miter;stroke-miterlimit:4;stroke-dasharray:none;stroke-dashoffset:0;stroke-opacity:1;marker:none;color-rendering:auto;image-rendering:auto;shape-rendering:auto;text-rendering:auto;enable-background:accumulate;stop-color:#000000;stop-opacity:1" />
      <text
         id="text1036-7-0"
         y="122.82035"
         x="132.41127"
         style="font-style:normal;font-variant:normal;font-weight:normal;font-stretch:normal;font-size:7.05556px;line-height:125%;font-family:Dadhand;-inkscape-font-specification:'Dadhand, Normal';font-variant-ligatures:normal;font-variant-caps:normal;font-variant-numeric:normal;font-variant-east-asian:normal;letter-spacing:0px;word-spacing:0px;opacity:1;fill:#000000;fill-opacity:1;stroke:none;stroke-width:0.264583px;stroke-linecap:butt;stroke-linejoin:miter;stroke-opacity:1"
         xml:space="preserve"><tspan
           id="tspan1038-3-6"
           style="font-style:normal;font-variant:normal;font-weight:normal;font-stretch:normal;font-size:7.05556px;font-family:Dadhand;-inkscape-font-specification:'Dadhand, Normal';font-variant-ligatures:normal;font-variant-caps:normal;font-variant-numeric:normal;font-variant-east-asian:normal;fill:#ffffff;fill-opacity:1;stroke-width:0.264583px"
           y="122.82035"
           x="132.41127"
           sodipodi:role="line">ES</tspan></text>
    </g>
    <g
       id="g1288">
      <rect
         style="color:#000000;clip-rule:nonzero;display:inline;overflow:visible;visibility:visible;opacity:1;isolation:auto;color-interpolation:sRGB;color-interpolation-filters:linearRGB;solid-color:#000000;solid-opacity:1;vector-effect:none;fill:#c97887;fill-opacity:1;fill-rule:evenodd;stroke:#963c4d;stroke-width:0.264583px;stroke-linecap:butt;stroke-linejoin:miter;stroke-miterlimit:4;stroke-dasharray:none;stroke-dashoffset:0;stroke-opacity:1;marker:none;color-rendering:auto;image-rendering:auto;shape-rendering:auto;text-rendering:auto;enable-background:accumulate;stop-color:#000000;stop-opacity:1"
         id="rect876-6-6-2"
         width="34.610523"
         height="20.437529"
         x="167.17732"
         y="141.63916" />
      <text
         xml:space="preserve"
         style="font-style:normal;font-variant:normal;font-weight:normal;font-stretch:normal;font-size:7.05556px;line-height:125%;font-family:Dadhand;-inkscape-font-specification:'Dadhand, Normal';font-variant-ligatures:normal;font-variant-caps:normal;font-variant-numeric:normal;font-variant-east-asian:normal;letter-spacing:0px;word-spacing:0px;opacity:1;fill:#000000;fill-opacity:1;stroke:none;stroke-width:0.264583px;stroke-linecap:butt;stroke-linejoin:miter;stroke-opacity:1"
         x="174.37552"
         y="154.46848"
         id="text1036-7-0-6"><tspan
           sodipodi:role="line"
           x="174.37552"
           y="154.46848"
           style="font-style:normal;font-variant:normal;font-weight:normal;font-stretch:normal;font-size:7.05556px;font-family:Dadhand;-inkscape-font-specification:'Dadhand, Normal';font-variant-ligatures:normal;font-variant-caps:normal;font-variant-numeric:normal;font-variant-east-asian:normal;fill:#ffffff;fill-opacity:1;stroke-width:0.264583px"
           id="tspan1038-3-6-1">Kibana</tspan></text>
    </g>
    <g
       id="g1283">
      <rect
         y="145.93404"
         x="112.1817"
         height="20.437529"
         width="34.610523"
         id="rect876-6-6-2-8"
         style="color:#000000;clip-rule:nonzero;display:inline;overflow:visible;visibility:visible;opacity:1;isolation:auto;color-interpolation:sRGB;color-interpolation-filters:linearRGB;solid-color:#000000;solid-opacity:1;vector-effect:none;fill:#c97887;fill-opacity:1;fill-rule:evenodd;stroke:#963c4d;stroke-width:0.264583px;stroke-linecap:butt;stroke-linejoin:miter;stroke-miterlimit:4;stroke-dasharray:none;stroke-dashoffset:0;stroke-opacity:1;marker:none;color-rendering:auto;image-rendering:auto;shape-rendering:auto;text-rendering:auto;enable-background:accumulate;stop-color:#000000;stop-opacity:1" />
      <text
         id="text1036-7-0-6-7"
         y="158.6787"
         x="124.05772"
         style="font-style:normal;font-variant:normal;font-weight:normal;font-stretch:normal;font-size:7.05556px;line-height:125%;font-family:Dadhand;-inkscape-font-specification:'Dadhand, Normal';font-variant-ligatures:normal;font-variant-caps:normal;font-variant-numeric:normal;font-variant-east-asian:normal;letter-spacing:0px;word-spacing:0px;opacity:1;fill:#000000;fill-opacity:1;stroke:none;stroke-width:0.264583px;stroke-linecap:butt;stroke-linejoin:miter;stroke-opacity:1"
         xml:space="preserve"><tspan
           id="tspan1038-3-6-1-9"
           style="font-style:normal;font-variant:normal;font-weight:normal;font-stretch:normal;font-size:7.05556px;font-family:Dadhand;-inkscape-font-specification:'Dadhand, Normal';font-variant-ligatures:normal;font-variant-caps:normal;font-variant-numeric:normal;font-variant-east-asian:normal;fill:#ffffff;fill-opacity:1;stroke-width:0.264583px"
           y="158.6787"
           x="124.05772"
           sodipodi:role="line">H2O</tspan></text>
    </g>
    <g
       id="g1273">
      <rect
         y="101.96021"
         x="172.60132"
         height="20.437529"
         width="34.610523"
         id="rect876-6-6-2-2"
         style="color:#000000;clip-rule:nonzero;display:inline;overflow:visible;visibility:visible;opacity:1;isolation:auto;color-interpolation:sRGB;color-interpolation-filters:linearRGB;solid-color:#000000;solid-opacity:1;vector-effect:none;fill:#c97887;fill-opacity:1;fill-rule:evenodd;stroke:#963c4d;stroke-width:0.264583px;stroke-linecap:butt;stroke-linejoin:miter;stroke-miterlimit:4;stroke-dasharray:none;stroke-dashoffset:0;stroke-opacity:1;marker:none;color-rendering:auto;image-rendering:auto;shape-rendering:auto;text-rendering:auto;enable-background:accumulate;stop-color:#000000;stop-opacity:1" />
      <text
         id="text1036-7-0-6-0"
         y="113.53365"
         x="181.13301"
         style="font-style:normal;font-variant:normal;font-weight:normal;font-stretch:normal;font-size:7.05556px;line-height:125%;font-family:Dadhand;-inkscape-font-specification:'Dadhand, Normal';font-variant-ligatures:normal;font-variant-caps:normal;font-variant-numeric:normal;font-variant-east-asian:normal;letter-spacing:0px;word-spacing:0px;opacity:1;fill:#000000;fill-opacity:1;stroke:none;stroke-width:0.264583px;stroke-linecap:butt;stroke-linejoin:miter;stroke-opacity:1"
         xml:space="preserve"><tspan
           id="tspan1038-3-6-1-2"
           style="font-style:normal;font-variant:normal;font-weight:normal;font-stretch:normal;font-size:7.05556px;font-family:Dadhand;-inkscape-font-specification:'Dadhand, Normal';font-variant-ligatures:normal;font-variant-caps:normal;font-variant-numeric:normal;font-variant-east-asian:normal;fill:#ffffff;fill-opacity:1;stroke-width:0.264583px"
           y="113.53365"
           x="181.13301"
           sodipodi:role="line">Spark</tspan></text>
    </g>
    <g
       id="g1263">
      <rect
         style="color:#000000;clip-rule:nonzero;display:inline;overflow:visible;visibility:visible;opacity:1;isolation:auto;color-interpolation:sRGB;color-interpolation-filters:linearRGB;solid-color:#000000;solid-opacity:1;vector-effect:none;fill:#c97887;fill-opacity:1;fill-rule:evenodd;stroke:#963c4d;stroke-width:0.264583px;stroke-linecap:butt;stroke-linejoin:miter;stroke-miterlimit:4;stroke-dasharray:none;stroke-dashoffset:0;stroke-opacity:1;marker:none;color-rendering:auto;image-rendering:auto;shape-rendering:auto;text-rendering:auto;enable-background:accumulate;stop-color:#000000;stop-opacity:1"
         id="rect876-6-6-2-2-3"
         width="34.610523"
         height="20.437529"
         x="224.82251"
         y="60.972961" />
      <text
         xml:space="preserve"
         style="font-style:normal;font-variant:normal;font-weight:normal;font-stretch:normal;font-size:7.05556px;line-height:125%;font-family:Dadhand;-inkscape-font-specification:'Dadhand, Normal';font-variant-ligatures:normal;font-variant-caps:normal;font-variant-numeric:normal;font-variant-east-asian:normal;letter-spacing:0px;word-spacing:0px;opacity:1;fill:#000000;fill-opacity:1;stroke:none;stroke-width:0.264583px;stroke-linecap:butt;stroke-linejoin:miter;stroke-opacity:1"
         x="234.90642"
         y="72.295921"
         id="text1036-7-0-6-0-7"><tspan
           sodipodi:role="line"
           x="234.90642"
           y="72.295921"
           style="font-style:normal;font-variant:normal;font-weight:normal;font-stretch:normal;font-size:7.05556px;font-family:Dadhand;-inkscape-font-specification:'Dadhand, Normal';font-variant-ligatures:normal;font-variant-caps:normal;font-variant-numeric:normal;font-variant-east-asian:normal;fill:#ffffff;fill-opacity:1;stroke-width:0.264583px"
           id="tspan1038-3-6-1-2-5">Flyte</tspan></text>
    </g>
    <path
       style="fill:none;fill-rule:evenodd;stroke:#ffffff;stroke-width:0.264583px;stroke-linecap:butt;stroke-linejoin:miter;stroke-opacity:1;font-variation-settings:normal;opacity:1;vector-effect:none;fill-opacity:1;stroke-miterlimit:4;stroke-dasharray:none;stroke-dashoffset:0;stop-color:#000000;stop-opacity:1"
       d="M 86.199206,97.838689 98.607605,98.12515"
       id="path1290"
       inkscape:connector-type="polyline"
       inkscape:connector-curvature="0"
       inkscape:connection-start="#path18"
       inkscape:connection-end="#rect876-2" />
    <path
       style="font-variation-settings:normal;opacity:1;vector-effect:none;fill:none;fill-opacity:1;fill-rule:evenodd;stroke:#ffffff;stroke-width:0.665;stroke-linecap:butt;stroke-linejoin:miter;stroke-miterlimit:4;stroke-dasharray:0.665,1.33;stroke-dashoffset:0;stroke-opacity:1;stop-color:#000000;stop-opacity:1"
       d="m 218.73118,158.25251 16.36371,-35.07925"
       id="path1292"
       inkscape:connector-type="polyline"
       inkscape:connector-curvature="0"
       inkscape:connection-end="#g1278" />
    <path
       style="font-variation-settings:normal;opacity:1;vector-effect:none;fill:none;fill-opacity:1;fill-rule:evenodd;stroke:#ffffff;stroke-width:0.665;stroke-linecap:butt;stroke-linejoin:miter;stroke-miterlimit:4;stroke-dasharray:0.665,1.33;stroke-dashoffset:0;stroke-opacity:1;stop-color:#000000;stop-opacity:1"
       d="m 254.44919,35.94324 -8.74936,25.029721"
       id="path1311"
       inkscape:connector-type="polyline"
       inkscape:connector-curvature="0"
       inkscape:connection-end="#g1263" />
    <path
       style="opacity:1;fill:#760d0d;fill-opacity:1;stroke-width:1"
       d="m 18.665278,199.27405 c -1.15996,-0.1335 -2.07075,-0.36275 -2.55479,-0.64304 l -0.24757,-0.14337 0.035,-0.32781 c 0.0192,-0.18029 0.0951,-1.10642 0.16864,-2.05805 l 0.13369,-1.73025 0.35496,-0.32647 c 0.19522,-0.17956 0.56817,-0.43642 0.82877,-0.5708 0.26061,-0.13438 0.48434,-0.25329 0.49719,-0.26425 0.0128,-0.011 -0.0456,-0.18245 -0.12995,-0.3811 -0.0843,-0.19865 -0.15323,-0.39104 -0.15314,-0.42753 9e-5,-0.0365 0.12995,-0.0975 0.28857,-0.13553 0.15862,-0.038 0.28639,-0.099 0.28393,-0.13554 -0.002,-0.0365 -0.0493,-0.19365 -0.10408,-0.34925 l -0.0996,-0.28291 -0.54981,-0.18422 c -1.17831,-0.39481 -1.7223,-0.84701 -1.7223,-1.4317 0,-0.50087 0.67295,-0.86121 1.89486,-1.01464 0.2321,-0.0291 0.43176,-0.0627 0.44367,-0.0747 0.0119,-0.0119 0.12762,-0.37097 0.25712,-0.7979 0.28266,-0.9319 0.36091,-1.02597 0.98664,-1.18617 0.60793,-0.15564 2.14856,-0.15564 2.75649,0 0.62573,0.1602 0.70398,0.25427 0.98664,1.18617 0.1295,0.42693 0.2452,0.78598 0.25712,0.7979 0.0119,0.0119 0.21157,0.0455 0.44367,0.0747 1.22191,0.15343 1.89486,0.51377 1.89486,1.01464 0,0.58469 -0.54399,1.03689 -1.7223,1.4317 l -0.54981,0.18422 -0.0996,0.28291 c -0.0548,0.1556 -0.10162,0.31276 -0.10408,0.34925 -0.002,0.0365 0.12531,0.0975 0.28393,0.13554 0.15862,0.038 0.28848,0.099 0.28857,0.13553 1.2e-4,0.0365 -0.0688,0.22888 -0.15314,0.42753 -0.0843,0.19865 -0.14279,0.37014 -0.12995,0.3811 0.0128,0.011 0.23658,0.12987 0.49719,0.26425 0.2606,0.13438 0.63348,0.39118 0.82862,0.57066 l 0.3548,0.32633 0.2589,2.04512 0.25889,2.04512 -0.12374,0.10019 c -0.33433,0.27073 -1.55719,0.57629 -2.84276,0.71034 -1.01809,0.10615 -3.0822,0.1072 -3.99603,0.002 z m 1.47988,-8.13764 c 0.0902,-0.0466 0.16402,-0.10526 0.16402,-0.13026 0,-0.025 -0.42828,-0.21649 -0.95173,-0.42556 -0.87762,-0.35054 -0.95173,-0.37086 -0.95173,-0.26098 0,0.31923 0.42654,0.77553 0.8516,0.91102 0.20342,0.0648 0.67755,0.0145 0.88784,-0.0942 z m 2.2199,-0.0548 c 0.25847,-0.15147 0.53975,-0.54858 0.53975,-0.76201 0,-0.10989 -0.0741,-0.0896 -0.95173,0.26097 -0.52345,0.20907 -0.95173,0.40033 -0.95173,0.42502 0,0.0247 0.0584,0.0763 0.12978,0.11461 0.3725,0.20013 0.85218,0.18513 1.23393,-0.0386 z"
       id="path896-9-3" />
    <path
       id="path896-9-3-2"
       d="m 217.2513,166.91932 c -1.15996,-0.1335 -2.07075,-0.36275 -2.55479,-0.64304 l -0.24757,-0.14337 0.035,-0.32781 c 0.0192,-0.18029 0.0951,-1.10642 0.16864,-2.05805 l 0.13369,-1.73025 0.35496,-0.32647 c 0.19522,-0.17956 0.56817,-0.43642 0.82877,-0.5708 0.26061,-0.13438 0.48434,-0.25329 0.49719,-0.26425 0.0128,-0.011 -0.0456,-0.18245 -0.12995,-0.3811 -0.0843,-0.19865 -0.15323,-0.39104 -0.15314,-0.42753 9e-5,-0.0365 0.12995,-0.0975 0.28857,-0.13553 0.15862,-0.038 0.28639,-0.099 0.28393,-0.13554 -0.002,-0.0365 -0.0493,-0.19365 -0.10408,-0.34925 l -0.0996,-0.28291 -0.54981,-0.18422 c -1.17831,-0.39481 -1.7223,-0.84701 -1.7223,-1.4317 0,-0.50087 0.67295,-0.86121 1.89486,-1.01464 0.2321,-0.0291 0.43176,-0.0627 0.44367,-0.0747 0.0119,-0.0119 0.12762,-0.37097 0.25712,-0.7979 0.28266,-0.9319 0.36091,-1.02597 0.98664,-1.18617 0.60793,-0.15564 2.14856,-0.15564 2.75649,0 0.62573,0.1602 0.70398,0.25427 0.98664,1.18617 0.1295,0.42693 0.2452,0.78598 0.25712,0.7979 0.0119,0.0119 0.21157,0.0455 0.44367,0.0747 1.22191,0.15343 1.89486,0.51377 1.89486,1.01464 0,0.58469 -0.54399,1.03689 -1.7223,1.4317 l -0.54981,0.18422 -0.0996,0.28291 c -0.0548,0.1556 -0.10162,0.31276 -0.10408,0.34925 -0.002,0.0365 0.12531,0.0975 0.28393,0.13554 0.15862,0.038 0.28848,0.099 0.28857,0.13553 1.2e-4,0.0365 -0.0688,0.22888 -0.15314,0.42753 -0.0843,0.19865 -0.14279,0.37014 -0.12995,0.3811 0.0128,0.011 0.23658,0.12987 0.49719,0.26425 0.2606,0.13438 0.63348,0.39118 0.82862,0.57066 l 0.3548,0.32633 0.2589,2.04512 0.25889,2.04512 -0.12374,0.10019 c -0.33433,0.27073 -1.55719,0.57629 -2.84276,0.71034 -1.01809,0.10615 -3.0822,0.1072 -3.99603,0.002 z m 1.47988,-8.13764 c 0.0902,-0.0466 0.16402,-0.10526 0.16402,-0.13026 0,-0.025 -0.42828,-0.21649 -0.95173,-0.42556 -0.87762,-0.35054 -0.95173,-0.37086 -0.95173,-0.26098 0,0.31923 0.42654,0.77553 0.8516,0.91102 0.20342,0.0648 0.67755,0.0145 0.88784,-0.0942 z m 2.2199,-0.0548 c 0.25847,-0.15147 0.53975,-0.54858 0.53975,-0.76201 0,-0.10989 -0.0741,-0.0896 -0.95173,0.26097 -0.52345,0.20907 -0.95173,0.40033 -0.95173,0.42502 0,0.0247 0.0584,0.0763 0.12978,0.11461 0.3725,0.20013 0.85218,0.18513 1.23393,-0.0386 z"
       style="opacity:1;fill:#760d0d;fill-opacity:1;stroke-width:1" />
    <path
       style="opacity:1;fill:#760d0d;fill-opacity:1;stroke-width:1"
       d="m 254.44912,35.94327 c -1.15996,-0.1335 -2.07075,-0.36275 -2.55479,-0.64304 l -0.24757,-0.14337 0.035,-0.32781 c 0.0192,-0.18029 0.0951,-1.10642 0.16864,-2.05805 l 0.13369,-1.73025 0.35496,-0.32647 c 0.19522,-0.17956 0.56817,-0.43642 0.82877,-0.5708 0.26061,-0.13438 0.48434,-0.25329 0.49719,-0.26425 0.0128,-0.011 -0.0456,-0.18245 -0.12995,-0.3811 -0.0843,-0.19865 -0.15323,-0.39104 -0.15314,-0.42753 9e-5,-0.0365 0.12995,-0.0975 0.28857,-0.13553 0.15862,-0.038 0.28639,-0.099 0.28393,-0.13554 -0.002,-0.0365 -0.0493,-0.19365 -0.10408,-0.34925 l -0.0996,-0.28291 -0.54981,-0.18422 c -1.17831,-0.39481 -1.7223,-0.84701 -1.7223,-1.4317 0,-0.50087 0.67295,-0.86121 1.89486,-1.01464 0.2321,-0.0291 0.43176,-0.0627 0.44367,-0.0747 0.0119,-0.0119 0.12762,-0.37097 0.25712,-0.7979 0.28266,-0.9319 0.36091,-1.02597 0.98664,-1.18617 0.60793,-0.15564 2.14856,-0.15564 2.75649,0 0.62573,0.1602 0.70398,0.25427 0.98664,1.18617 0.1295,0.42693 0.2452,0.78598 0.25712,0.7979 0.0119,0.0119 0.21157,0.0455 0.44367,0.0747 1.22191,0.15343 1.89486,0.51377 1.89486,1.01464 0,0.58469 -0.54399,1.03689 -1.7223,1.4317 l -0.54981,0.18422 -0.0996,0.28291 c -0.0548,0.1556 -0.10162,0.31276 -0.10408,0.34925 -0.002,0.0365 0.12531,0.0975 0.28393,0.13554 0.15862,0.038 0.28848,0.099 0.28857,0.13553 1.2e-4,0.0365 -0.0688,0.22888 -0.15314,0.42753 -0.0843,0.19865 -0.14279,0.37014 -0.12995,0.3811 0.0128,0.011 0.23658,0.12987 0.49719,0.26425 0.2606,0.13438 0.63348,0.39118 0.82862,0.57066 l 0.3548,0.32633 0.2589,2.04512 0.25889,2.04512 -0.12374,0.10019 c -0.33433,0.27073 -1.55719,0.57629 -2.84276,0.71034 -1.01809,0.10615 -3.0822,0.1072 -3.99603,0.002 z m 1.47988,-8.13764 c 0.0902,-0.0466 0.16402,-0.10526 0.16402,-0.13026 0,-0.025 -0.42828,-0.21649 -0.95173,-0.42556 -0.87762,-0.35054 -0.95173,-0.37086 -0.95173,-0.26098 0,0.31923 0.42654,0.77553 0.8516,0.91102 0.20342,0.0648 0.67755,0.0145 0.88784,-0.0942 z m 2.2199,-0.0548 c 0.25847,-0.15147 0.53975,-0.54858 0.53975,-0.76201 0,-0.10989 -0.0741,-0.0896 -0.95173,0.26097 -0.52345,0.20907 -0.95173,0.40033 -0.95173,0.42502 0,0.0247 0.0584,0.0763 0.12978,0.11461 0.3725,0.20013 0.85218,0.18513 1.23393,-0.0386 z"
       id="path896-9-3-2-0" />
  </g>
</svg>
